<svg width="292" height="254" viewBox="0 0 292 254" fill="none" xmlns="http://www.w3.org/2000/svg">
<path d="M217.189 17.8836C222.425 16.7244 226.786 19.2974 230.987 22.0009C234.15 24.0351 237.343 25.8114 240.877 27.1436C247.947 29.808 255.505 31.0651 262.819 32.9099C266.567 33.8535 270.254 35.0028 273.811 36.5016C276.747 37.7423 279.443 40.0867 282.66 40.4785C284.575 40.7104 285.866 39.1594 286.133 37.517C286.487 35.3294 284.501 33.6837 282.733 32.8936C282.416 32.7532 281.926 33.0764 282.192 33.4225C282.833 34.2617 286.46 38.5456 282.66 38.9047C281.178 39.0451 278.826 37.2068 277.518 36.5016C274.962 35.1204 272.209 34.0788 269.456 33.1384C263.667 31.1565 257.607 29.9876 251.665 28.5443C245.435 27.0293 239.295 25.093 233.636 22.0858C228.434 19.3235 223.292 15.8951 217.143 17.7203C217.033 17.7497 217.079 17.9097 217.189 17.8836Z" fill="#6A6A6A" fill-opacity="0.46"/>
<path d="M210.662 13.5055C211.906 18.2236 217.776 13.3585 219.995 12.6108C226.955 10.2632 235.564 14.9258 241.82 17.3976C248.637 20.0946 255.641 22.3312 262.735 24.2152C266.482 25.2111 269.822 25.6095 272.872 28.0485C274.937 29.7007 277.637 30.3733 280.173 30.9382C280.313 30.9708 280.36 30.7815 280.229 30.7325C277.043 29.4721 273.736 28.3326 271.587 25.554C270.79 24.5222 266.702 24.1695 265.394 23.8071C258.697 21.9688 252.124 19.6995 245.687 17.1266C239.831 14.7854 233.992 11.0142 227.699 9.99868C225.3 9.61339 222.861 9.96604 220.582 10.7105C218.026 11.5464 213.087 16.738 210.702 13.4892C210.685 13.4696 210.655 13.4826 210.662 13.5055Z" fill="#6A6A6A" fill-opacity="0.46"/>
<path d="M215.468 22.4453C212.678 22.0568 211.781 24.5807 211.664 26.9121C211.47 30.7258 214.967 35.0651 217.213 37.8699C222.592 44.5863 231.317 49.7812 239.269 53.017C253.377 58.7604 271.222 61.1146 284.699 52.7721C284.805 52.7068 284.712 52.5435 284.599 52.6056C272.663 59.0183 259.433 56.8405 246.86 53.4415C239.479 51.4465 232.942 48.0409 226.673 43.7799C221.691 40.3972 208.614 28.8712 215.511 22.6053C215.561 22.5629 215.545 22.4551 215.468 22.4453Z" fill="#6A6A6A" fill-opacity="0.46"/>
<path d="M210.812 12.3603C217.529 5.6177 224.88 1.16402 234.733 0.925666C244.903 0.680779 255.401 4.04389 264.837 7.46579C274.607 11.0085 282.952 16.618 288.008 25.7377C291.888 32.7414 290.163 42.9581 286.266 49.544C286.069 49.877 286.539 50.2492 286.816 49.9586C292.425 44.0977 292.879 34.485 290.373 27.1841C287.15 17.7968 277.38 11.0934 268.461 7.54742C250.493 0.406505 223.825 -6.70176 210.675 12.2558C210.618 12.3374 210.742 12.4288 210.812 12.3603Z" fill="#6A6A6A" fill-opacity="0.46"/>
<path d="M213.714 18.5096C206.724 20.5177 209.103 31.2731 210.828 36.0239C214.845 47.0765 224.976 54.4394 235.58 58.9878C244.816 62.9517 255.043 64.5092 265.093 63.8529C274.506 63.2423 284.79 59.9086 289.088 50.9849C290.623 47.7981 291.087 44.2326 291.077 40.7421C291.077 40.5201 290.736 40.5233 290.726 40.7421C289.522 63.9966 261.416 65.3647 243.655 60.7183C231.823 57.623 219.824 50.6453 213.524 40.0989C210.731 35.4231 205.646 21.4646 213.738 18.5912C213.791 18.5716 213.768 18.4933 213.714 18.5096Z" fill="#6A6A6A" fill-opacity="0.46"/>
<path d="M212.423 27.0444C211.256 30.8777 210.562 35.8864 212.75 39.514C212.864 39.7001 213.154 39.6152 213.161 39.403C213.214 37.3459 212.68 35.3248 212.594 33.2645C212.507 31.2009 212.484 29.1373 212.684 27.0803C212.697 26.9301 212.467 26.9105 212.423 27.0444Z" fill="#6A6A6A" fill-opacity="0.46"/>
<path d="M214.685 33.6157C214.211 37.1813 213.781 42.1345 216.14 45.194C216.343 45.4552 216.787 45.3866 216.794 45.0209C216.834 43.3263 216.22 41.6741 215.933 40.0089C215.569 37.867 215.129 35.8001 215.035 33.6157C215.025 33.3904 214.712 33.4035 214.685 33.6157Z" fill="#6A6A6A" fill-opacity="0.46"/>
<path d="M218.766 39.5821C217.772 42.3412 217.989 46.3084 219.951 48.6463C220.234 48.9793 220.665 48.6038 220.611 48.2675C220.398 46.8994 219.877 45.5672 219.53 44.2219C219.14 42.7265 219.11 41.1364 218.94 39.605C218.926 39.507 218.8 39.4842 218.766 39.5821Z" fill="#6A6A6A" fill-opacity="0.46"/>
<path d="M222.576 42.2078C221.895 44.8983 221.408 50.276 224.378 51.9217C224.581 52.0327 224.842 51.8923 224.842 51.6605C224.835 50.263 223.947 48.8655 223.47 47.5529C222.85 45.8517 222.713 44.0298 222.836 42.2437C222.846 42.0968 222.613 42.0707 222.576 42.2078Z" fill="#6A6A6A" fill-opacity="0.46"/>
<path d="M227.154 46.576C226.937 48.3849 227.037 50.1351 227.414 51.9179C227.695 53.2468 228.569 55.1145 229.884 55.6761C230.164 55.7969 230.561 55.6631 230.544 55.3072C230.478 54.0958 229.63 52.9203 229.096 51.8461C228.245 50.1416 227.658 48.4633 227.418 46.576C227.398 46.4095 227.174 46.4095 227.154 46.576Z" fill="#6A6A6A" fill-opacity="0.46"/>
<path d="M221.326 31.9682C220.722 35.6612 220.649 41.4863 224.206 43.9483C224.436 44.1083 224.683 43.8079 224.566 43.5957C222.517 39.8505 221.273 36.324 221.413 31.978C221.416 31.929 221.336 31.9192 221.326 31.9682Z" fill="#6A6A6A" fill-opacity="0.46"/>
<path d="M216.607 25.0338C215.466 28.6026 214.525 34.3395 217.662 37.2749C217.842 37.4414 218.196 37.2782 218.102 37.0235C216.628 33.0041 215.913 29.3471 216.691 25.0566C216.701 25.0044 216.624 24.9815 216.607 25.0338Z" fill="#6A6A6A" fill-opacity="0.46"/>
<path d="M226.458 35.8683C225.974 38.8984 225.92 43.9496 228.993 45.8565C229.234 46.0067 229.461 45.7226 229.354 45.5038C228.65 44.0606 227.836 42.846 227.392 41.2689C226.885 39.4731 226.541 37.7523 226.544 35.8781C226.544 35.8324 226.464 35.8194 226.458 35.8683Z" fill="#6A6A6A" fill-opacity="0.46"/>
<path d="M245.424 50.7815C238.567 48.2379 232.084 44.1728 226.458 39.6049C221.496 35.5822 216.875 30.6551 216.638 24.0888C216.631 23.8962 216.347 23.8538 216.291 24.0431C214.662 29.5939 220.999 35.6442 224.653 38.9322C230.562 44.2512 237.753 48.4535 245.4 50.8631C245.457 50.8827 245.477 50.8011 245.424 50.7815Z" fill="#6A6A6A" fill-opacity="0.46"/>
<path d="M274.193 58.4078C252.057 63.9847 225.903 55.6357 213.925 35.9173C213.828 35.7541 213.534 35.8618 213.604 36.0479C216.624 44.2305 226.277 50.6073 233.708 54.4994C246.254 61.0722 260.592 62.3619 274.216 58.4927C274.269 58.4764 274.246 58.3948 274.193 58.4078Z" fill="#6A6A6A" fill-opacity="0.46"/>
<path d="M226.576 22.5419C226.536 21.7126 226.313 20.942 225.936 20.1975C225.609 19.5576 224.791 18.6825 223.991 18.7249C223.84 18.7347 223.667 18.8882 223.737 19.0515C223.947 19.5445 224.534 20.0702 224.941 20.4228C225.602 20.9975 226.053 21.7615 226.319 22.5778C226.363 22.7117 226.586 22.6921 226.576 22.5419Z" fill="#6A6A6A" fill-opacity="0.46"/>
<path d="M229.145 23.6837C228.614 22.3841 228.194 21.029 227.34 19.9025C227.196 19.7164 226.873 19.8176 226.939 20.0691C227.306 21.4307 228.121 22.5931 228.825 23.8143C228.921 23.9808 229.222 23.8665 229.145 23.6837Z" fill="#6A6A6A" fill-opacity="0.46"/>
<path d="M224.085 20.6743C224.119 20.3445 224.122 20.0212 224.095 19.6947C224.065 19.3323 223.788 18.9666 223.592 18.6727C223.158 18.0262 222.701 17.5397 221.9 17.4287C221.61 17.3862 221.336 17.6474 221.503 17.9315C221.646 18.1731 221.753 18.3952 221.947 18.6042C222.144 18.8164 222.39 18.9927 222.591 19.2082C222.798 19.4335 222.961 19.6947 223.125 19.9494C223.305 20.2368 223.628 20.462 223.839 20.7396C223.919 20.8441 224.072 20.8049 224.085 20.6743Z" fill="#6A6A6A" fill-opacity="0.46"/>
<path d="M217.169 17.781C220.286 17.7124 220.87 16.39 225.768 18.643C230.219 20.687 241.124 27.3741 245.752 29.0589C250.51 30.7927 254.938 32.2424 260.05 32.6049C265.572 32.9967 269.96 33.1338 275.035 35.5435C275.402 35.7166 277.852 36.7386 277.535 36.5002C272.933 33.013 268.172 30.4923 264.184 29.5225C258.081 28.0369 248.371 29.3364 242.876 26.019C233.65 20.4454 228.294 13.2979 217.159 17.7189C217.123 17.732 217.129 17.7777 217.169 17.781Z" fill="#6A6A6A" fill-opacity="0.46"/>
<path d="M132.508 195.489C132.508 195.489 132.241 195.159 131.624 194.673C131.013 194.173 130.069 193.504 128.835 192.71C126.355 191.14 122.622 189.167 117.87 187.554C115.498 186.751 112.872 186.056 110.055 185.524C107.242 184.995 104.233 184.684 101.116 184.58C97.9997 184.475 94.7764 184.668 91.5264 185.057C88.2798 185.448 85.0064 186.098 81.8032 187.009C78.5932 187.888 75.4367 188.945 72.3869 190.196C69.3504 191.45 66.3741 192.756 63.5912 194.193C60.8084 195.623 58.1723 197.108 55.7799 198.666C53.3975 200.24 51.2353 201.853 49.4134 203.518C47.6082 205.196 46.11 206.897 45.0523 208.576C44.0079 210.26 43.3872 211.893 43.1236 213.29C43.0769 213.643 42.9935 213.976 42.9768 214.293C42.9568 214.61 42.9401 214.91 42.9234 215.188C42.9234 215.743 42.9601 216.219 42.9868 216.608C43.117 217.375 43.1837 217.783 43.1837 217.783C43.1837 217.783 43.0636 217.385 42.84 216.631C42.6899 215.87 42.4229 214.711 42.5797 213.222C42.6999 211.74 43.1603 209.937 44.128 208.073C45.089 206.208 46.5104 204.285 48.2889 202.424C50.0674 200.556 52.1996 198.741 54.592 197.014C56.9845 195.293 59.6105 193.624 62.4334 192.096C65.2563 190.562 68.2259 189.083 71.3525 187.786C74.4623 186.48 77.7357 185.341 81.0624 184.407C84.3991 183.489 87.816 182.843 91.2094 182.464C94.6029 182.072 97.983 182.023 101.23 182.206C104.48 182.382 107.596 182.879 110.489 183.558C113.389 184.227 116.055 185.125 118.437 186.111C123.219 188.08 126.826 190.441 129.155 192.276C130.329 193.19 131.174 194 131.727 194.565C132.285 195.13 132.508 195.489 132.508 195.489Z" fill="#6A6A6A" fill-opacity="0.46"/>
<path d="M139.372 208.202C139.372 208.202 139.345 207.98 139.265 207.585C139.185 207.19 139.035 206.616 138.751 205.946C138.671 205.78 138.594 205.607 138.494 205.43C138.427 205.303 138.284 205.065 138.177 204.895C137.964 204.591 137.65 204.261 137.276 204.01C136.519 203.497 135.461 203.21 134.243 203.145C133.022 203.083 131.654 203.197 130.212 203.409C128.764 203.634 127.239 203.964 125.661 204.336C122.504 205.097 119.144 206.057 115.761 207.007C112.377 207.951 108.964 208.878 105.724 209.629C104.106 210.011 102.521 210.321 101.016 210.602C99.5142 210.893 98.0761 211.099 96.7447 211.259C94.082 211.595 91.8297 211.637 90.2648 211.572C89.484 211.543 88.87 211.471 88.4563 211.425C88.0425 211.37 87.8223 211.337 87.8223 211.337C87.8223 211.337 88.0425 211.311 88.4563 211.259C88.87 211.216 89.4706 211.115 90.2314 211.001C91.7496 210.746 93.8885 210.295 96.4244 209.636C97.6924 209.306 99.0571 208.914 100.502 208.509C101.95 208.098 103.462 207.624 105.037 207.158C108.183 206.211 111.543 205.176 114.943 204.219C118.347 203.269 121.794 202.384 125.114 201.796C126.775 201.502 128.404 201.297 129.975 201.212C130.763 201.169 131.534 201.153 132.284 201.176C133.039 201.208 133.773 201.293 134.473 201.427C135.177 201.561 135.851 201.747 136.469 202.021C137.089 202.296 137.64 202.665 138.077 203.092C138.517 203.523 138.831 203.984 139.058 204.483C139.155 204.722 139.215 204.878 139.282 205.143C139.338 205.358 139.375 205.567 139.412 205.763C139.539 206.547 139.509 207.164 139.465 207.579C139.448 207.784 139.418 207.938 139.398 208.042C139.382 208.147 139.372 208.202 139.372 208.202Z" fill="#6A6A6A" fill-opacity="0.46"/>
<path d="M105.204 213.878L104.28 213.454L103.343 213.085L102.392 212.765C102.071 212.667 101.748 212.592 101.427 212.503C100.78 212.353 100.129 212.242 99.4786 212.147L98.4976 212.05L97.5133 212.007C96.8526 212.004 96.1986 212.02 95.5446 212.056C94.8906 212.098 94.2366 212.167 93.5859 212.255C92.2813 212.445 90.9866 212.706 89.6953 213.003C88.4006 213.303 87.1126 213.656 85.8213 214.028L81.9107 215.112C79.2813 215.837 76.5785 216.506 73.7456 216.8L73.6822 216.807H73.5554C72.7146 216.807 71.6335 216.983 70.6091 217.199C69.5647 217.414 68.5136 217.662 67.4625 217.943C66.4148 218.227 65.3604 218.505 64.3127 218.815L61.1761 219.762C60.6289 219.925 60.2418 220.065 59.708 220.284C59.2942 220.47 58.8471 220.686 58.42 220.941C57.5691 221.443 56.795 222.057 56.1043 222.749C55.4169 223.448 54.8463 224.248 54.4292 225.127C54.2223 225.564 54.0422 226.018 53.912 226.488C53.8353 226.72 53.7852 226.958 53.7352 227.197L53.6951 227.376L53.6851 227.422V227.435C53.6785 227.484 53.6885 227.38 53.6851 227.393V227.419L53.6751 227.52C53.6651 227.615 53.6818 227.575 53.6751 227.608C53.6718 227.621 53.6851 227.677 53.6851 227.709C53.7318 228.033 53.932 228.45 54.199 228.842C54.4626 229.237 54.7962 229.619 55.1499 229.992C55.8673 230.73 56.6915 231.409 57.5524 232.042C59.2775 233.309 61.1594 234.416 63.1181 235.369C65.0801 236.31 67.1189 237.126 69.231 237.724C71.3398 238.305 73.5288 238.71 75.751 238.641C73.5454 238.928 71.2798 238.729 69.0875 238.298C66.8886 237.857 64.7364 237.195 62.6643 236.346C60.5888 235.494 58.5701 234.494 56.6715 233.257C55.7272 232.63 54.8096 231.954 53.952 231.161C53.5283 230.759 53.1145 230.335 52.7441 229.838C52.3771 229.345 52.0234 228.79 51.8566 228.046C51.8399 227.944 51.8199 227.866 51.8099 227.745C51.7999 227.641 51.7932 227.468 51.7965 227.425L51.7999 227.324L51.8065 227.22L51.8132 227.164L51.8332 226.942C51.8599 226.642 51.8933 226.344 51.9533 226.051C52.0534 225.46 52.237 224.882 52.4505 224.317C52.881 223.187 53.5149 222.132 54.2957 221.202C55.0699 220.265 56.0042 219.465 57.0219 218.799C57.5257 218.466 58.0596 218.168 58.6435 217.884C59.1207 217.656 59.7647 217.388 60.2719 217.215C61.3296 216.826 62.3874 216.467 63.4551 216.131C64.5229 215.791 65.5973 215.462 66.6851 215.168C67.7729 214.871 68.8773 214.596 70.0018 214.358C71.143 214.136 72.2641 213.924 73.6422 213.934L73.4553 213.937C74.096 213.871 74.74 213.796 75.384 213.705C76.0313 213.61 76.6786 213.499 77.3293 213.378C78.624 213.13 79.932 212.863 81.2433 212.562L85.214 211.658C86.5521 211.38 87.9035 211.119 89.2715 210.907C89.9556 210.802 90.6463 210.708 91.337 210.632C92.031 210.567 92.7284 210.521 93.4291 210.495C94.1298 210.472 94.8305 210.476 95.5313 210.502L96.5857 210.57L97.6301 210.701L98.6678 210.887L99.6888 211.132C100.026 211.233 100.363 211.325 100.693 211.432C101.02 211.56 101.347 211.674 101.668 211.808C102.305 212.079 102.925 212.383 103.519 212.725L104.387 213.277L105.204 213.878Z" fill="#6A6A6A" fill-opacity="0.46"/>
<path d="M138.312 212.261C138.182 226.977 117.644 227.092 107.454 230.739C100.837 233.109 94.8074 236.113 87.61 236.293C81.6239 236.44 75.0539 234.112 70.1455 230.863C69.8352 230.661 69.3614 231.036 69.6484 231.34C74.0128 236.028 79.1848 238.588 85.5813 239.48C93.9165 240.639 101.244 236.897 108.735 233.932C116.203 230.974 124.544 230.409 131.285 225.773C135.736 222.713 139.013 217.688 138.399 212.252C138.392 212.196 138.312 212.206 138.312 212.261Z" fill="#6A6A6A" fill-opacity="0.46"/>
<path d="M139.049 216.796C133.08 238.389 110.567 247.626 90.4227 252.759C90.2292 252.808 90.3126 253.121 90.5062 253.089C111.388 249.791 134.988 239.489 139.136 216.813C139.146 216.754 139.062 216.748 139.049 216.796Z" fill="#6A6A6A" fill-opacity="0.46"/>
<path d="M42.0001 220.756C42.8142 234.649 54.5996 243.841 66.722 249.071C79.2348 254.469 94.1801 254.991 106.396 248.634C106.539 248.559 106.459 248.333 106.299 248.395C83.2756 257.228 48.6902 245.689 42.1702 220.717C42.1435 220.619 41.9967 220.665 42.0001 220.756Z" fill="#6A6A6A" fill-opacity="0.46"/>
<path d="M124.825 194.024C118.361 197.677 111.411 200.459 104.14 202.121C100.673 202.912 97.1297 203.336 93.5827 203.571C92.9621 203.61 89.5286 204.169 89.3784 203.202C89.2116 202.112 88.6477 201.801 87.8168 201.256C87.5232 201.067 87.0027 201.331 87.2029 201.703C87.7067 202.526 88.0638 203.408 88.2706 204.355C88.334 204.714 88.6076 204.913 88.9713 204.91C101.778 204.75 114.294 201.207 124.878 194.092C124.925 194.06 124.875 193.998 124.825 194.024Z" fill="#6A6A6A" fill-opacity="0.46"/>
<path d="M87.1932 204.468C86.1589 206.097 85.5983 207.374 83.3827 207.074C82.2315 206.917 81.0903 206.92 79.9325 206.917C76.5991 206.91 73.2857 207.397 70.0423 208.115C64.4099 209.359 58.2369 211.769 53.9292 215.632C53.729 215.811 53.9025 216.229 54.1861 216.076C58.7808 213.591 63.0685 211.116 68.1371 209.62C73.7595 207.959 79.6422 207.763 85.4682 208.057C85.6283 208.066 85.7618 208.007 85.8319 207.861C86.3624 206.773 86.8896 205.686 87.4168 204.599C87.4802 204.468 87.2733 204.341 87.1932 204.468Z" fill="#6A6A6A" fill-opacity="0.46"/>
<path d="M124.163 230.876C124.71 234.818 122.351 238.726 119.572 241.374C119.332 241.606 119.592 241.959 119.889 241.789C123.89 239.454 124.864 235.092 124.227 230.87C124.22 230.831 124.156 230.837 124.163 230.876Z" fill="#6A6A6A" fill-opacity="0.46"/>
<path d="M117.401 232.935C116.83 238.169 114.068 242.443 110.911 246.557C110.694 246.841 111.048 247.161 111.338 246.982C116.176 244.027 118.042 238.303 117.751 232.941C117.741 232.745 117.424 232.739 117.401 232.935Z" fill="#6A6A6A" fill-opacity="0.46"/>
<path d="M110.393 234.228C108.631 240.611 104.564 245.326 99.8625 249.858C99.5922 250.119 100.016 250.436 100.29 250.286C106.232 247.021 109.729 240.716 110.74 234.28C110.777 234.058 110.45 234.019 110.393 234.228Z" fill="#6A6A6A" fill-opacity="0.46"/>
<path d="M99.8947 236.795C97.8225 244.05 91.9365 249.03 85.0462 251.906C84.7825 252.017 84.8693 252.448 85.173 252.403C93.1545 251.129 98.8736 244.468 100.155 236.834C100.185 236.668 99.938 236.639 99.8947 236.795Z" fill="#6A6A6A" fill-opacity="0.46"/>
<path d="M89.5571 239.319C83.8346 244.122 76.9075 246.796 69.7535 248.83C69.4032 248.931 69.5734 249.418 69.9004 249.408C77.7517 249.17 84.6354 245.176 89.7406 239.502C89.8374 239.394 89.6706 239.224 89.5571 239.319Z" fill="#6A6A6A" fill-opacity="0.46"/>
<path d="M78.8085 238.228C72.9592 241.578 66.646 243.041 59.9225 243.341C59.5688 243.358 59.5654 243.893 59.9058 243.939C66.8028 244.85 73.5798 242.652 78.9653 238.434C79.1021 238.329 78.952 238.146 78.8085 238.228Z" fill="#6A6A6A" fill-opacity="0.46"/>
<path d="M65.9623 239.082C62.4153 240.163 58.7016 240.352 55.0111 240.306C54.6941 240.303 54.7275 240.754 54.9978 240.819C58.8417 241.723 62.5221 240.92 66.059 239.324C66.2125 239.252 66.1224 239.033 65.9623 239.082Z" fill="#6A6A6A" fill-opacity="0.46"/>
<path d="M133.963 225.433C115.551 237.583 93.0914 247.339 70.9087 239.431C70.6952 239.356 70.565 239.646 70.7686 239.748C91.9169 250.066 117.083 238.54 134.003 225.485C134.037 225.459 133.997 225.41 133.963 225.433Z" fill="#6A6A6A" fill-opacity="0.46"/>
<path d="M131.324 231.069C114.513 241.938 95.7642 250.091 75.2899 246.134C75.0463 246.088 74.9328 246.464 75.1664 246.546C94.1559 253.131 116.752 242.667 131.377 231.137C131.421 231.101 131.371 231.036 131.324 231.069Z" fill="#6A6A6A" fill-opacity="0.46"/>
<path d="M86.0427 207.883C82.6826 208.503 76.92 210.537 76.4795 214.459C76.4528 214.707 76.6998 214.942 76.9567 214.831C78.5683 214.132 79.4826 212.676 80.794 211.559C82.4223 210.171 84.1274 208.96 86.0827 208.049C86.1661 208.01 86.1428 207.866 86.0427 207.883Z" fill="#6A6A6A" fill-opacity="0.46"/>
<path d="M81.1766 207.668C77.7565 208.318 73.1885 210.577 72.8815 214.42C72.8582 214.688 73.1885 214.969 73.4388 214.747C74.68 213.64 75.4608 212.229 76.6787 211.08C78.0902 209.741 79.4115 208.693 81.2367 207.916C81.3668 207.86 81.3268 207.638 81.1766 207.668Z" fill="#6A6A6A" fill-opacity="0.46"/>
<path d="M76.6808 207.675C73.4708 208.625 69.0362 211.221 68.8961 214.94C68.8827 215.286 69.2665 215.465 69.5201 215.204C70.6012 214.091 71.3553 212.671 72.3063 211.446C73.4775 209.938 75.0858 208.811 76.8109 207.995C77.0145 207.897 76.8977 207.609 76.6808 207.675Z" fill="#6A6A6A" fill-opacity="0.46"/>
<path d="M71.3061 208.975C67.5956 210.298 62.5337 213.452 62.6439 217.827C62.6505 218.108 63.0576 218.288 63.2745 218.095C64.6859 216.835 65.4234 215.192 66.6146 213.739C68.036 212.002 69.5609 210.487 71.4762 209.272C71.6464 209.161 71.4862 208.91 71.3061 208.975Z" fill="#6A6A6A" fill-opacity="0.46"/>
<path d="M65.1668 209.849C62.9779 211.223 60.9759 212.817 59.2241 214.704C57.9695 216.056 56.1443 218.348 56.1677 220.242C56.171 220.545 56.5748 220.673 56.7983 220.509C58.3899 219.367 59.1441 217.114 60.3319 215.556C61.8668 213.545 63.3583 211.684 65.2736 209.986C65.357 209.911 65.2636 209.787 65.1668 209.849Z" fill="#6A6A6A" fill-opacity="0.46"/>
<path d="M58.3381 213.302C56.3161 213.968 54.5543 215.258 53.5032 217.096C52.5556 218.765 51.8215 221.266 53.0527 222.889C53.2396 223.134 53.7 223.117 53.8068 222.804C54.344 221.263 54.1205 219.679 54.7244 218.109C55.4552 216.202 56.6731 214.559 58.4249 213.449C58.5116 213.397 58.4282 213.273 58.3381 213.302Z" fill="#6A6A6A" fill-opacity="0.46"/>
<path d="M92.3591 204.856C91.1879 205.3 90.2403 206.028 89.4795 207.005C88.9022 207.743 88.0447 209.391 88.7554 210.234C88.9156 210.42 89.1492 210.4 89.3127 210.24C89.6196 209.947 89.6297 209.669 89.6964 209.258C89.7831 208.742 89.99 208.232 90.1769 207.743C90.6107 206.623 91.4649 205.715 92.4859 205.078C92.6127 205 92.4926 204.804 92.3591 204.856Z" fill="#6A6A6A" fill-opacity="0.46"/>
<path d="M95.2619 204.43C94.2408 204.825 93.4333 205.501 92.8394 206.406C92.3923 207.085 91.6882 208.525 92.3622 209.237C92.4757 209.354 92.6725 209.387 92.7826 209.243C92.9395 209.034 93.0329 208.838 93.0329 208.571C93.0329 208.012 93.143 207.49 93.3466 206.971C93.7136 206.011 94.4777 205.227 95.392 204.75C95.5856 204.646 95.4788 204.345 95.2619 204.43Z" fill="#6A6A6A" fill-opacity="0.46"/>
<path d="M97.2074 204.696C96.6335 205.196 96.183 205.77 95.8093 206.426C95.6291 206.746 95.4222 207.145 95.3622 207.511C95.3054 207.87 95.4389 208.248 95.5424 208.591C95.6425 208.918 96.1497 208.898 96.2731 208.604C96.3766 208.353 96.5134 208.118 96.6001 207.86C96.7069 207.55 96.7002 207.194 96.767 206.871C96.8971 206.221 97.1974 205.607 97.5711 205.062C97.728 204.833 97.441 204.487 97.2074 204.696Z" fill="#6A6A6A" fill-opacity="0.46"/>
<path d="M100.961 204.028C99.8799 204.684 99.2359 205.543 98.7487 206.686C98.3483 207.616 97.8645 209.046 98.6353 209.866C98.7955 210.039 99.1058 210.098 99.2626 209.872C99.8031 209.105 99.6096 208.152 99.8365 207.254C100.083 206.255 100.721 205.219 101.328 204.393C101.508 204.148 101.215 203.874 100.961 204.028Z" fill="#6A6A6A" fill-opacity="0.46"/>
<path d="M104.992 202.939C104.121 202.652 103.21 204.02 102.836 204.621C102.273 205.525 101.822 206.857 102.486 207.827C102.636 208.052 102.983 207.984 103.09 207.758C103.467 206.968 103.467 206.002 103.787 205.179C103.978 204.689 104.275 204.255 104.615 203.857C104.852 203.582 105.069 203.419 105.069 203.044C105.069 203.001 105.032 202.952 104.992 202.939Z" fill="#6A6A6A" fill-opacity="0.46"/>
<path d="M109.55 201.183C108.629 201.826 107.865 202.594 107.218 203.505C106.654 204.298 105.973 205.408 106.033 206.398C106.05 206.678 106.42 206.682 106.537 206.473C106.964 205.715 107.077 204.791 107.474 203.994C107.988 202.959 108.769 202.065 109.657 201.32C109.74 201.248 109.643 201.118 109.55 201.183Z" fill="#6A6A6A" fill-opacity="0.46"/>
<path d="M112.037 200.31C110.959 201.09 110.001 201.995 109.217 203.059C108.62 203.866 107.899 205.24 108.039 206.259C108.069 206.488 108.356 206.566 108.506 206.393C109.187 205.606 109.437 204.404 109.964 203.497C110.612 202.38 111.216 201.335 112.097 200.372C112.133 200.333 112.077 200.28 112.037 200.31Z" fill="#6A6A6A" fill-opacity="0.46"/>
<path d="M114.487 199.237C112.502 200.981 110.153 203.547 110.069 206.3C110.063 206.522 110.383 206.75 110.537 206.499C111.204 205.415 111.594 204.22 112.125 203.071C112.752 201.716 113.623 200.488 114.611 199.361C114.674 199.286 114.564 199.172 114.487 199.237Z" fill="#6A6A6A" fill-opacity="0.46"/>
<path d="M117.429 197.95C115.613 199.563 113.601 201.842 113.668 204.382C113.671 204.601 114.015 204.702 114.135 204.516C115.477 202.478 116.087 200.105 117.612 198.132C117.699 198.018 117.542 197.848 117.429 197.95Z" fill="#6A6A6A" fill-opacity="0.46"/>
<path d="M119.395 196.852C118.231 197.753 117.21 198.824 116.452 200.078C115.715 201.306 114.841 202.847 115.278 204.306C115.321 204.453 115.568 204.496 115.655 204.362C116.346 203.278 116.462 201.887 116.943 200.705C117.513 199.294 118.431 198.047 119.516 196.976C119.586 196.904 119.472 196.793 119.395 196.852Z" fill="#6A6A6A" fill-opacity="0.46"/>
<path d="M121.3 195.184C119.735 197.104 117.713 199.621 117.322 202.103C117.282 202.347 117.636 202.524 117.79 202.302C118.44 201.361 118.807 200.304 119.308 199.278C119.969 197.936 120.769 196.666 121.644 195.448C121.807 195.223 121.477 194.965 121.3 195.184Z" fill="#6A6A6A" fill-opacity="0.46"/>
<path d="M123.737 195.109C121.545 196.898 118.702 199.788 118.759 202.798C118.762 203.024 119.099 203.112 119.226 202.932C120.003 201.825 120.447 200.421 121.021 199.2C121.718 197.721 122.696 196.386 123.8 195.171C123.834 195.135 123.777 195.08 123.737 195.109Z" fill="#6A6A6A" fill-opacity="0.46"/>
<path d="M125.007 194.902C123.843 195.786 122.982 196.9 122.384 198.216C121.897 199.277 121.477 200.887 122.158 201.941C122.248 202.078 122.478 202.043 122.535 201.899C122.915 200.939 122.798 199.744 123.015 198.725C123.315 197.315 124.11 196.041 125.131 195.022C125.201 194.95 125.084 194.843 125.007 194.902Z" fill="#6A6A6A" fill-opacity="0.46"/>
<path d="M123.928 194.521C122.524 196.764 122.287 200.199 124.489 202.027C124.716 202.214 125.106 201.952 124.966 201.681C123.788 199.379 123.014 197.179 124.225 194.697C124.312 194.524 124.032 194.354 123.928 194.521Z" fill="#6A6A6A" fill-opacity="0.46"/>
<path d="M117.53 200.957C109.112 204.349 100.459 205.724 91.4803 206.716C91.3335 206.733 91.3202 206.964 91.4737 206.971C100.516 207.418 109.502 204.881 117.597 201.117C117.697 201.071 117.637 200.914 117.53 200.957Z" fill="#6A6A6A" fill-opacity="0.46"/>
<path d="M122.097 197.492C118.557 199.059 114.88 200.381 111.173 201.527C110.889 201.616 111.006 202.073 111.296 202.024C115.327 201.364 118.841 199.914 122.181 197.639C122.261 197.583 122.187 197.449 122.097 197.492Z" fill="#6A6A6A" fill-opacity="0.46"/>
<path d="M125.748 192.406C124.57 194.11 124.407 195.795 125.058 197.732C125.571 199.263 127.133 201.486 129.048 200.752C129.292 200.66 129.482 200.389 129.435 200.128C129.229 198.959 128.211 198.29 127.507 197.399C126.532 196.168 126.109 194.15 126.292 192.638C126.329 192.357 125.932 192.142 125.748 192.406Z" fill="#6A6A6A" fill-opacity="0.46"/>
<path d="M82.267 189.471C72.5638 191.525 64.0284 196.014 56.3138 202.078C50.5713 206.587 42.166 214.537 45.1791 222.573C45.2792 222.841 45.7497 222.815 45.7697 222.508C46.0333 218.341 46.774 214.779 49.1598 211.233C51.6924 207.475 55.4829 204.481 59.0766 201.741C65.9804 196.484 74.1554 192.687 82.3271 189.719C82.4639 189.67 82.4138 189.441 82.267 189.471Z" fill="#6A6A6A" fill-opacity="0.46"/>
<path d="M44.6504 209.959C49.4553 206.822 54.2701 206.959 59.5155 208.774C59.8825 208.898 60.1995 208.438 59.8725 208.186C55.3779 204.722 48.2941 205.96 44.4702 209.776C44.3601 209.884 44.5336 210.034 44.6504 209.959Z" fill="#6A6A6A" fill-opacity="0.46"/>
<path d="M46.4055 205.27C50.4797 202.417 55.1745 201.44 60.1129 201.578C60.3831 201.587 60.57 201.182 60.2597 201.088C55.1211 199.504 49.8457 201.333 46.282 205.15C46.2153 205.221 46.3254 205.326 46.4055 205.27Z" fill="#6A6A6A" fill-opacity="0.46"/>
<path d="M53.9068 198.869C59.2389 197.106 64.6478 197.148 70.0834 198.37C70.3903 198.438 70.4871 198.004 70.2302 197.88C64.9148 195.307 58.9053 195.767 53.78 198.549C53.5865 198.654 53.6866 198.944 53.9068 198.869Z" fill="#6A6A6A" fill-opacity="0.46"/>
<path d="M62.6654 192.897C67.1533 192.165 71.5578 192.759 75.7888 194.33C76.0124 194.415 76.2293 194.105 76.0124 193.964C71.9649 191.385 67.0933 190.993 62.5853 192.563C62.3985 192.629 62.4685 192.929 62.6654 192.897Z" fill="#6A6A6A" fill-opacity="0.46"/>
<path d="M72.7846 187.69C76.375 188.131 79.8352 189.189 83.262 190.27C83.5323 190.355 83.6858 190.012 83.4388 189.878C80.1221 188.102 76.5285 187.524 72.7913 187.521C72.6912 187.521 72.6879 187.681 72.7846 187.69Z" fill="#6A6A6A" fill-opacity="0.46"/>
<path d="M133.045 196.572C135.207 202.459 139.304 207.083 138.66 213.731C138.63 214.025 139.027 214.139 139.161 213.875C140.696 210.861 140.939 208.301 140.008 205.075C138.987 201.545 135.524 199.139 133.275 196.448C133.181 196.337 132.994 196.435 133.045 196.572Z" fill="#6A6A6A" fill-opacity="0.46"/>
<path d="M50.3202 99.8639C51.1044 105.059 48.1513 109.117 45.0749 113.013C42.7625 115.942 40.7071 118.919 39.0787 122.266C35.8288 128.963 33.9702 136.241 31.5344 143.235C30.2864 146.82 28.8316 150.334 27.0331 153.687C25.5482 156.459 22.9523 158.908 22.3083 162.016C21.9245 163.871 23.406 165.249 25.0611 165.634C27.26 166.143 29.0919 164.331 30.0295 162.666C30.1997 162.369 29.9061 161.866 29.5323 162.098C28.6281 162.663 23.9867 165.876 23.9099 162.137C23.8799 160.681 25.932 158.529 26.7528 157.305C28.3544 154.915 29.6257 152.309 30.7936 149.697C33.2528 144.198 34.9045 138.373 36.8298 132.685C38.8485 126.726 41.291 120.882 44.7846 115.592C47.9979 110.727 51.8818 105.97 50.4938 99.8312C50.4704 99.7202 50.3036 99.7529 50.3202 99.8639Z" fill="#6A6A6A" fill-opacity="0.46"/>
<path d="M55.2754 93.6988C50.3738 94.551 54.885 100.65 55.4789 102.874C57.3375 109.842 51.932 117.884 48.9356 123.8C45.6689 130.249 42.8561 136.91 40.3936 143.688C39.0922 147.267 38.4349 150.496 35.7155 153.288C33.8736 155.175 32.9827 157.758 32.2152 160.191C32.1718 160.324 32.3587 160.383 32.4188 160.262C33.947 157.249 35.3584 154.108 38.3548 152.224C39.4659 151.522 40.14 147.564 40.6071 146.314C42.9895 139.92 45.8024 133.681 48.9189 127.594C51.7485 122.06 56.0362 116.65 57.5511 110.589C58.1283 108.278 57.9548 105.871 57.3709 103.592C56.7135 101.036 51.7985 95.8179 55.2921 93.738C55.3121 93.7249 55.3021 93.6923 55.2754 93.6988Z" fill="#6A6A6A" fill-opacity="0.46"/>
<path d="M45.9753 97.7995C46.5859 95.1057 44.0834 94.0413 41.7176 93.7474C37.8437 93.2707 33.1556 96.3465 30.1258 98.3284C22.8751 103.063 16.9157 111.18 13.0117 118.69C6.08459 132.018 2.32412 149.249 9.79508 163.034C9.85514 163.145 10.0253 163.064 9.97522 162.949C4.34947 150.816 7.57611 138.072 11.9973 126.066C14.5933 119.016 18.564 112.898 23.3823 107.105C27.2095 102.501 39.9525 90.6227 45.8085 97.8321C45.8519 97.8844 45.962 97.8713 45.9753 97.7995Z" fill="#6A6A6A" fill-opacity="0.46"/>
<path d="M56.5355 94.0587C62.8954 101.128 66.8727 108.638 66.3622 118.27C65.8383 128.212 61.6107 138.197 57.4064 147.144C53.0486 156.407 46.6988 164.119 37.0189 168.358C29.588 171.61 19.3075 169.148 12.8976 164.844C12.5706 164.625 12.1568 165.056 12.4304 165.35C17.9761 171.27 27.7361 172.446 35.3639 170.555C45.1772 168.126 52.7517 159.104 57.0461 150.673C65.6916 133.685 74.9677 108.21 56.6523 93.9314C56.5756 93.8693 56.4721 93.9869 56.5355 94.0587Z" fill="#6A6A6A" fill-opacity="0.46"/>
<path d="M50.1238 96.3698C48.6089 89.3954 37.4676 90.8974 32.4958 92.2198C20.9307 95.2955 12.6555 104.618 7.20995 114.615C2.4651 123.324 0.102675 133.188 0.00257266 143.042C-0.0941929 152.273 2.51847 162.561 11.2841 167.436C14.4173 169.176 18.0143 169.898 21.5679 170.156C21.7948 170.172 21.8182 169.839 21.5947 169.813C-2.00612 166.865 -1.25536 139.339 4.83086 122.364C8.88834 111.056 16.9099 99.8831 28.1413 94.538C33.1164 92.1708 47.728 88.2722 50.037 96.3861C50.0537 96.4384 50.1371 96.4253 50.1238 96.3698Z" fill="#6A6A6A" fill-opacity="0.46"/>
<path d="M41.4591 94.4598C37.6452 93.0264 32.5934 91.9652 28.7327 93.8263C28.5325 93.921 28.5959 94.2116 28.8095 94.2345C30.9016 94.4434 33.0038 94.0777 35.1092 94.1496C37.2181 94.2214 39.3236 94.3553 41.4057 94.7079C41.5558 94.734 41.5925 94.5087 41.4591 94.4598Z" fill="#6A6A6A" fill-opacity="0.46"/>
<path d="M34.5055 96.214C30.9118 95.4793 25.8967 94.6826 22.6 96.7527C22.3164 96.929 22.3531 97.3698 22.7268 97.4057C24.4486 97.5723 26.177 97.0988 27.8988 96.9454C30.111 96.7527 32.2465 96.4817 34.4788 96.5568C34.7124 96.5634 34.7224 96.2597 34.5055 96.214Z" fill="#6A6A6A" fill-opacity="0.46"/>
<path d="M28.0749 99.7609C25.3354 98.5821 21.2779 98.4874 18.7486 100.228C18.3849 100.476 18.7353 100.927 19.0823 100.901C20.4938 100.796 21.8885 100.391 23.2866 100.153C24.8416 99.885 26.4633 99.9797 28.0382 99.9275C28.1383 99.9242 28.1683 99.8034 28.0749 99.7609Z" fill="#6A6A6A" fill-opacity="0.46"/>
<path d="M25.1391 103.218C22.4497 102.349 17.0041 101.464 15.1055 104.236C14.9754 104.422 15.0989 104.69 15.3325 104.706C16.7573 104.804 18.2521 104.05 19.6235 103.681C21.4053 103.208 23.2706 103.211 25.0824 103.466C25.2326 103.489 25.2793 103.263 25.1391 103.218Z" fill="#6A6A6A" fill-opacity="0.46"/>
<path d="M20.5025 107.427C18.674 107.078 16.8822 107.042 15.0403 107.274C13.6656 107.447 11.6936 108.158 11.0195 109.396C10.8761 109.66 10.9829 110.059 11.3466 110.068C12.5845 110.095 13.8491 109.36 14.9836 108.922C16.7854 108.22 18.5405 107.776 20.4825 107.685C20.6527 107.678 20.6694 107.46 20.5025 107.427Z" fill="#6A6A6A" fill-opacity="0.46"/>
<path d="M16.399 111.481C15.3979 110.684 13.4159 111.142 12.2213 111.328C10.8399 111.543 8.90458 112.157 8.37737 113.551C8.29729 113.767 8.45746 113.989 8.68103 114.012C9.85557 114.129 11.1903 113.365 12.2347 112.898C13.0956 112.51 14.0132 112.275 14.9375 112.085C15.5648 111.958 15.9151 112.004 16.4056 111.618C16.4557 111.582 16.4424 111.517 16.399 111.481Z" fill="#6A6A6A" fill-opacity="0.46"/>
<path d="M12.3961 116.209C10.8778 115.755 8.81236 114.968 7.24741 115.585C6.98381 115.689 6.9471 116.107 7.19736 116.251C8.6522 117.087 10.8111 116.607 12.3827 116.375C12.4694 116.362 12.4795 116.235 12.3961 116.209Z" fill="#6A6A6A" fill-opacity="0.46"/>
<path d="M10.2564 120.028C9.58909 119.483 8.96177 118.895 8.18431 118.503C7.52697 118.17 6.88297 117.71 6.11885 117.742C5.76516 117.755 5.5783 118.088 5.78852 118.379C6.23231 118.99 6.98307 119.205 7.65709 119.509C8.45457 119.871 9.32214 119.998 10.1763 120.181C10.2731 120.201 10.3365 120.093 10.2564 120.028Z" fill="#6A6A6A" fill-opacity="0.46"/>
<path d="M9.38967 123.06C8.64891 122.649 7.83472 122.42 7.11398 121.967C6.46331 121.558 5.90276 120.735 5.12529 120.569C4.90173 120.523 4.68148 120.624 4.65479 120.869C4.55802 121.856 5.63246 122.564 6.40993 122.962C7.35089 123.442 8.3586 123.749 9.3663 123.358C9.48309 123.312 9.50312 123.122 9.38967 123.06Z" fill="#6A6A6A" fill-opacity="0.46"/>
<path d="M7.69312 127.876C7.04911 127.043 6.21824 126.436 5.5075 125.656C4.91021 125.003 4.2996 124.206 3.3753 124.03C3.18176 123.99 3.01823 124.177 2.99821 124.346C2.88476 125.342 3.76567 126.185 4.49977 126.753C5.4174 127.465 6.36509 128.075 7.54633 128.16C7.70649 128.17 7.78321 127.994 7.69312 127.876Z" fill="#6A6A6A" fill-opacity="0.46"/>
<path d="M6.63555 132.615C6.33524 131.704 5.36091 131.162 4.73026 130.45C3.98282 129.604 3.43891 128.628 2.36113 128.164C2.14757 128.07 1.914 128.249 1.89398 128.461C1.76719 129.709 2.65475 130.656 3.54567 131.446C4.29978 132.118 5.30085 133.108 6.39197 132.97C6.54546 132.951 6.6856 132.765 6.63555 132.615Z" fill="#6A6A6A" fill-opacity="0.46"/>
<path d="M5.91922 137.522C5.42538 136.454 4.38093 135.683 3.62014 134.782C3.2531 134.345 2.12531 132.879 1.40457 133.483C0.660463 134.11 1.8283 135.465 2.26208 135.922C3.09628 136.8 4.07397 137.91 5.2919 138.207C5.71567 138.309 6.11609 137.946 5.91922 137.522Z" fill="#6A6A6A" fill-opacity="0.46"/>
<path d="M5.07798 142.622C5.08465 142.413 5.08132 142.227 4.89113 142.093C4.34391 141.698 3.82007 141.287 3.31957 140.836C2.93918 140.493 2.59886 140.118 2.22848 139.769C1.84476 139.396 1.30418 139.132 0.870405 138.809C0.626827 138.626 0.279829 138.926 0.41997 139.187C0.653539 139.622 0.893808 140.242 1.25083 140.588C1.65791 140.98 2.10499 141.323 2.56212 141.659C3.11601 142.067 4.25048 143.145 4.97788 142.766C5.03127 142.737 5.07464 142.684 5.07798 142.622Z" fill="#6A6A6A" fill-opacity="0.46"/>
<path d="M6.1976 149.11C5.5436 148.277 4.50589 147.82 3.68171 147.151C2.86755 146.488 2.0901 145.355 0.972298 145.254C0.738726 145.234 0.51848 145.42 0.501797 145.652C0.428389 146.795 1.6096 147.66 2.48049 148.248C3.49819 148.93 4.75946 149.727 6.02409 149.6C6.26767 149.573 6.32773 149.273 6.1976 149.11Z" fill="#6A6A6A" fill-opacity="0.46"/>
<path d="M5.53941 153.886C4.85205 153.622 4.30817 153.214 3.6842 152.838C3.10695 152.492 2.71657 152.019 2.0826 151.777C1.76895 151.656 1.43863 151.947 1.50203 152.264C1.82902 153.87 3.89441 154.565 5.35923 154.719C5.86307 154.774 5.9932 154.063 5.53941 153.886Z" fill="#6A6A6A" fill-opacity="0.46"/>
<path d="M7.18752 159.204C6.01965 158.975 5.23883 158.276 4.29452 157.64C4.0843 157.499 3.77065 157.734 3.90746 157.966C4.54812 159.063 5.91956 159.491 7.16084 159.547C7.39441 159.556 7.40441 159.246 7.18752 159.204Z" fill="#6A6A6A" fill-opacity="0.46"/>
<path d="M45.9068 149.372C49.4438 150.835 56.561 150.498 58.6498 146.737C58.7933 146.482 58.513 146.214 58.2628 146.394C54.926 148.804 50.0811 150.453 45.9369 149.293C45.8802 149.277 45.8535 149.352 45.9068 149.372Z" fill="#6A6A6A" fill-opacity="0.46"/>
<path d="M42.3097 154.712C46.0101 156.27 53.5044 156.09 55.7634 152.149C55.9102 151.894 55.62 151.626 55.3764 151.809C51.8828 154.373 46.6475 155.897 42.3397 154.63C42.283 154.614 42.2563 154.689 42.3097 154.712Z" fill="#6A6A6A" fill-opacity="0.46"/>
<path d="M38.4342 158.878C41.871 160.586 49.9526 162.049 52.4285 157.997C52.5853 157.739 52.285 157.481 52.0415 157.654C48.4044 160.227 42.5351 160.289 38.4642 158.797C38.4075 158.777 38.3841 158.852 38.4342 158.878Z" fill="#6A6A6A" fill-opacity="0.46"/>
<path d="M33.2239 162.225C36.357 164.484 44.0649 167.191 47.2081 163.57C47.3849 163.367 47.0979 163.083 46.8744 163.191C42.857 165.144 37.0511 164.285 33.2739 162.153C33.2239 162.127 33.1771 162.192 33.2239 162.225Z" fill="#6A6A6A" fill-opacity="0.46"/>
<path d="M29.6809 165.905C31.6763 167.453 34.1388 168.511 36.6714 168.804C38.2663 168.991 40.4619 169.046 41.5597 167.717C41.7366 167.505 41.4529 167.244 41.2294 167.338C37.7692 168.824 32.8341 167.645 29.7309 165.836C29.6809 165.807 29.6375 165.872 29.6809 165.905Z" fill="#6A6A6A" fill-opacity="0.46"/>
<path d="M47.6778 144.823C51.2148 146.286 58.332 145.946 60.4208 142.185C60.5643 141.93 60.284 141.666 60.0338 141.845C56.697 144.251 51.8554 145.904 47.7079 144.741C47.6512 144.725 47.6245 144.8 47.6778 144.823Z" fill="#6A6A6A" fill-opacity="0.46"/>
<path d="M51.2858 140.567C55.1264 140.629 61.0158 139.859 62.9945 136.055C63.1246 135.8 62.7609 135.634 62.574 135.771C59.0938 138.295 55.677 140.002 51.2791 140.482C51.2324 140.489 51.2358 140.567 51.2858 140.567Z" fill="#6A6A6A" fill-opacity="0.46"/>
<path d="M54.5505 135.184C57.697 135.223 62.8056 134.54 64.2904 131.285C64.4106 131.024 64.0669 130.874 63.8733 131.004C62.6054 131.84 61.5376 132.771 60.1195 133.404C58.311 134.211 56.5258 134.825 54.5471 135.099C54.4971 135.105 54.5004 135.184 54.5505 135.184Z" fill="#6A6A6A" fill-opacity="0.46"/>
<path d="M57.3288 129.022C60.075 128.862 64.5629 127.909 65.7174 125.026C65.7942 124.83 65.5539 124.582 65.3537 124.706C64.1792 125.427 63.2415 126.384 61.9969 127.037C60.4587 127.837 59.0272 128.539 57.3121 128.937C57.2554 128.95 57.2755 129.026 57.3288 129.022Z" fill="#6A6A6A" fill-opacity="0.46"/>
<path d="M60.2077 124.163C61.6559 123.882 63.0807 123.399 64.3553 122.664C65.313 122.113 66.6009 121.12 66.9413 120.043C67.0047 119.84 66.7912 119.605 66.5776 119.723C65.5732 120.274 64.7924 121.238 63.8315 121.884C62.6336 122.697 61.5358 123.52 60.181 124.085C60.1343 124.104 60.1577 124.173 60.2077 124.163Z" fill="#6A6A6A" fill-opacity="0.46"/>
<path d="M35.728 102.802C32.0109 101.927 26.0815 101.414 23.2986 104.699C23.1218 104.908 23.4088 105.173 23.6323 105.075C27.6064 103.36 31.2935 102.417 35.7113 102.884C35.758 102.89 35.778 102.812 35.728 102.802Z" fill="#6A6A6A" fill-opacity="0.46"/>
<path d="M43.1282 98.7316C39.5812 97.3471 33.8053 95.992 30.5787 98.8295C30.3918 98.9928 30.5319 99.3487 30.7989 99.2769C35.0099 98.1471 38.7871 97.7259 43.0982 98.8132C43.1549 98.8263 43.1816 98.7544 43.1282 98.7316Z" fill="#6A6A6A" fill-opacity="0.46"/>
<path d="M31.2879 107.647C28.2381 106.945 23.0928 106.511 20.9172 109.362C20.7471 109.584 21.0173 109.828 21.2476 109.74C22.7725 109.162 24.0738 108.464 25.7155 108.147C27.5808 107.791 29.3626 107.585 31.2712 107.732C31.3179 107.736 31.338 107.66 31.2879 107.647Z" fill="#6A6A6A" fill-opacity="0.46"/>
<path d="M25.9434 112.33C23.2207 111.902 18.646 111.869 16.8742 114.433C16.714 114.661 16.9676 114.893 17.2045 114.811C18.5692 114.338 19.7471 113.603 21.1719 113.202C22.7636 112.754 24.2651 112.441 25.9368 112.415C25.9935 112.415 26.0002 112.34 25.9434 112.33Z" fill="#6A6A6A" fill-opacity="0.46"/>
<path d="M21.2471 116.88C19.7589 116.848 18.2541 117.011 16.8393 117.468C15.8015 117.808 14.3267 118.493 13.7595 119.453C13.6594 119.63 13.7828 119.924 14.0264 119.855C15.1142 119.538 16.0785 118.781 17.1396 118.353C18.5077 117.804 19.7856 117.233 21.2505 116.965C21.3005 116.956 21.2972 116.88 21.2471 116.88Z" fill="#6A6A6A" fill-opacity="0.46"/>
<path d="M17.1676 123.677C15.3757 123.539 11.8788 122.638 10.8678 124.79C10.781 124.976 10.9846 125.162 11.1681 125.133C12.0924 124.97 12.8398 124.398 13.8242 124.284C14.9353 124.157 16.0731 123.957 17.1742 123.761C17.2243 123.752 17.2176 123.68 17.1676 123.677Z" fill="#6A6A6A" fill-opacity="0.46"/>
<path d="M64.1242 111.942C64.8249 121.931 61.5816 132.503 57.711 141.629C53.1897 152.284 46.4628 161.246 35.6784 166.258C35.5015 166.34 35.595 166.631 35.7885 166.582C46.4361 163.996 53.52 152.323 57.7043 143.301C62.1121 133.796 65.2954 122.453 64.2109 111.926C64.2043 111.871 64.1208 111.887 64.1242 111.942Z" fill="#6A6A6A" fill-opacity="0.46"/>
<path d="M54.985 140.945C52.3123 146.117 49.1457 151.103 45.3251 155.544C41.4779 160.023 36.9632 162.538 31.8046 165.244C31.6311 165.336 31.7146 165.607 31.9148 165.568C37.0634 164.533 41.7148 160.36 45.1583 156.719C49.496 152.131 52.5525 146.672 55.0684 140.974C55.0918 140.922 55.0117 140.896 54.985 140.945Z" fill="#6A6A6A" fill-opacity="0.46"/>
<path d="M14.6418 124.836C17.7549 118.339 22.393 112.327 27.4749 107.181C31.9528 102.649 37.3249 98.5157 44.0317 98.7835C44.2286 98.7933 44.2953 98.5222 44.1052 98.4504C38.5762 96.4358 31.9294 102.16 28.299 105.474C22.4264 110.835 17.5981 117.529 14.5584 124.807C14.5383 124.859 14.6184 124.885 14.6418 124.836Z" fill="#6A6A6A" fill-opacity="0.46"/>
<path d="M4.82054 152.412C0.826465 130.389 11.3272 105.512 32.3353 95.3275C32.5088 95.2427 32.4187 94.9488 32.2252 95.0043C23.6565 97.3258 16.4224 106.259 11.8911 113.211C4.23662 124.949 1.83082 138.842 4.73378 152.429C4.74713 152.484 4.83055 152.468 4.82054 152.412Z" fill="#6A6A6A" fill-opacity="0.46"/>
<path d="M44.891 108.558C45.7419 108.581 46.5427 108.424 47.3301 108.111C48.0075 107.84 48.9618 107.108 48.9752 106.325C48.9785 106.178 48.835 105.998 48.6648 106.054C48.1443 106.22 47.5637 106.752 47.1733 107.121C46.5394 107.722 45.7252 108.104 44.8744 108.303C44.7342 108.336 44.7342 108.555 44.891 108.558Z" fill="#6A6A6A" fill-opacity="0.46"/>
<path d="M43.4809 111.175C44.8456 110.754 46.2571 110.447 47.4717 109.703C47.6719 109.578 47.5918 109.252 47.3315 109.298C45.9167 109.552 44.6688 110.258 43.3708 110.852C43.1939 110.933 43.2874 111.237 43.4809 111.175Z" fill="#6A6A6A" fill-opacity="0.46"/>
<path d="M40.9588 112.373C42.3235 112.363 44.2288 112.278 45.3332 111.406C45.5101 111.266 45.3599 110.995 45.1497 111.031C44.4857 111.145 43.8718 111.491 43.2278 111.691C42.487 111.922 41.7162 112.046 40.9455 112.118C40.7987 112.131 40.812 112.376 40.9588 112.373Z" fill="#6A6A6A" fill-opacity="0.46"/>
<path d="M39.494 113.721C41.2357 114.929 43.5815 115.203 45.1998 113.642C45.42 113.433 45.1964 113.11 44.9128 113.215C43.2178 113.848 41.3225 114.24 39.5741 113.567C39.4806 113.531 39.4139 113.665 39.494 113.721Z" fill="#6A6A6A" fill-opacity="0.46"/>
<path d="M38.1127 116.755C38.8034 117.153 39.5675 117.548 40.3884 117.483C41.3894 117.405 42.3404 117.196 43.1513 116.602C43.3315 116.471 43.1746 116.187 42.9677 116.229C41.4061 116.536 39.7678 116.758 38.1694 116.598C38.086 116.588 38.036 116.709 38.1127 116.755Z" fill="#6A6A6A" fill-opacity="0.46"/>
<path d="M37.2472 119.509C38.8088 119.989 40.4038 119.885 41.6284 118.771C41.8086 118.608 41.6185 118.304 41.3882 118.416C40.1136 119.023 38.7154 119.503 37.2839 119.343C37.1838 119.333 37.1505 119.48 37.2472 119.509Z" fill="#6A6A6A" fill-opacity="0.46"/>
<path d="M36.0636 121.857C36.8778 122.373 37.6319 122.625 38.5962 122.465C39.5405 122.311 40.3613 121.929 40.8518 121.116C40.9386 120.973 40.8318 120.724 40.6283 120.783C39.1501 121.224 37.7053 121.782 36.1203 121.701C36.0369 121.697 35.9902 121.809 36.0636 121.857Z" fill="#6A6A6A" fill-opacity="0.46"/>
<path d="M35.4742 124.552C36.1448 124.846 36.959 125.081 37.6898 124.895C38.3571 124.728 39.2447 124.402 39.4917 123.719C39.5451 123.576 39.4416 123.367 39.2647 123.373C38.7108 123.399 38.2504 123.723 37.7198 123.863C37.0091 124.049 36.2883 124.238 35.5476 124.219C35.344 124.212 35.294 124.474 35.4742 124.552Z" fill="#6A6A6A" fill-opacity="0.46"/>
<path d="M34.7449 127.045C35.7593 126.81 36.9472 126.686 37.8881 126.242C38.1651 126.111 38.0149 125.716 37.7246 125.759C36.6902 125.903 35.6391 126.451 34.6614 126.804C34.5213 126.856 34.6014 127.081 34.7449 127.045Z" fill="#6A6A6A" fill-opacity="0.46"/>
<path d="M33.2816 129.539C33.8555 129.47 34.4261 129.402 35 129.333C35.4905 129.277 36.0043 129.284 36.3714 128.984C36.4981 128.879 36.4848 128.667 36.2846 128.618C35.8108 128.497 35.4437 128.647 34.9966 128.775C34.3927 128.948 33.7854 129.121 33.1815 129.294C33.0113 129.343 33.1147 129.558 33.2816 129.539Z" fill="#6A6A6A" fill-opacity="0.46"/>
<path d="M32.2669 131.28C33.4548 131.535 34.8028 131.378 35.667 130.48C35.8239 130.317 35.657 129.984 35.4268 130.121C34.4458 130.709 33.4848 131.182 32.3037 131.114C32.2069 131.107 32.1668 131.261 32.2669 131.28Z" fill="#6A6A6A" fill-opacity="0.46"/>
<path d="M31.2381 132.991C32.743 133.612 34.2713 133.373 35.339 132.146C35.5092 131.946 35.2022 131.728 35.0154 131.862C33.9743 132.583 32.5495 133.001 31.2915 132.743C31.1414 132.71 31.108 132.939 31.2381 132.991Z" fill="#6A6A6A" fill-opacity="0.46"/>
<path d="M30.6844 135.159C32.1893 135.777 33.7175 135.538 34.7852 134.314C34.9587 134.115 34.6484 133.896 34.4616 134.027C33.4238 134.751 31.9991 135.166 30.7411 134.908C30.5876 134.879 30.5543 135.107 30.6844 135.159Z" fill="#6A6A6A" fill-opacity="0.46"/>
<path d="M30.4414 136.837C31.0688 137.013 31.7194 137.101 32.3734 137.036C33.221 136.951 33.7582 136.752 34.3722 136.17C34.5924 135.961 34.3622 135.635 34.0852 135.743C32.9273 136.187 31.7795 136.628 30.5149 136.504C30.318 136.484 30.2479 136.784 30.4414 136.837Z" fill="#6A6A6A" fill-opacity="0.46"/>
<path d="M29.5853 139.293C31.2504 139.754 33.3759 139.662 34.4837 138.147C34.6305 137.948 34.4369 137.602 34.1733 137.68C32.6685 138.131 31.3004 138.862 29.6788 138.879C29.4452 138.879 29.3317 139.225 29.5853 139.293Z" fill="#6A6A6A" fill-opacity="0.46"/>
<path d="M28.0318 144.418C29.1663 144.924 30.0038 145.779 30.8814 146.618C31.0515 146.781 31.3652 146.615 31.2451 146.386C30.6145 145.195 29.4099 144.535 28.1186 144.176C27.9551 144.127 27.875 144.349 28.0318 144.418Z" fill="#6A6A6A" fill-opacity="0.46"/>
<path d="M29.0268 143.12C30.1613 143.627 31.0021 144.482 31.8796 145.321C32.0465 145.484 32.3635 145.318 32.2434 145.086C31.6127 143.898 30.4048 143.238 29.1169 142.876C28.95 142.83 28.8733 143.052 29.0268 143.12Z" fill="#6A6A6A" fill-opacity="0.46"/>
<path d="M26.3965 145.486C27.0171 146.002 27.3141 146.625 27.7979 147.233C28.0482 147.549 28.2517 147.879 28.4286 148.238C28.6154 148.617 28.7656 148.803 29.0826 149.087C29.2661 149.25 29.5898 149.25 29.6799 148.979C29.8167 148.561 29.8601 148.268 29.6932 147.85C29.5064 147.383 29.2194 146.952 28.9191 146.547C28.4019 145.848 27.3374 145.46 26.5166 145.257C26.3664 145.221 26.2797 145.391 26.3965 145.486Z" fill="#6A6A6A" fill-opacity="0.46"/>
<path d="M25.2281 148.07C25.7887 148.906 26.0457 149.764 26.3059 150.715C26.5362 151.576 26.6529 152.425 27.1101 153.196C27.2369 153.408 27.5605 153.47 27.714 153.242C29.032 151.273 27.1835 148.873 25.5785 147.691C25.3183 147.498 25.0746 147.844 25.2281 148.07Z" fill="#6A6A6A" fill-opacity="0.46"/>
<path d="M24.0761 151.204C24.3931 152.327 24.5333 153.483 24.6934 154.636C24.8436 155.697 24.5767 156.758 24.9471 157.774C25.0472 158.045 25.4843 158.055 25.6277 157.823C26.869 155.838 25.4543 152.801 24.2297 151.132C24.1763 151.061 24.0528 151.123 24.0761 151.204Z" fill="#6A6A6A" fill-opacity="0.46"/>
<path d="M22.8706 156.052C23.2843 156.797 23.5345 157.571 23.6513 158.41C23.7547 159.174 23.5679 159.902 23.7013 160.663C23.7347 160.865 24.065 160.963 24.1751 160.758C24.9892 159.256 24.0383 157.169 23.0907 155.912C23.0007 155.794 22.8005 155.925 22.8706 156.052Z" fill="#6A6A6A" fill-opacity="0.46"/>
<path d="M21.1573 158.434C22.0082 159.714 22.0249 161.203 22.6922 162.525C22.8123 162.757 23.1694 162.744 23.2595 162.496C23.8334 160.893 22.5287 159.25 21.3509 158.274C21.2541 158.192 21.0873 158.326 21.1573 158.434Z" fill="#6A6A6A" fill-opacity="0.46"/>
<path d="M44.2689 148.548C42.694 148.388 39.5374 148.567 38.9768 150.418C38.9001 150.673 39.1036 150.912 39.3772 150.872C40.1613 150.758 40.8888 150.102 41.5461 149.694C42.3737 149.174 43.318 148.874 44.279 148.717C44.3791 148.701 44.3657 148.557 44.2689 148.548Z" fill="#6A6A6A" fill-opacity="0.46"/>
<path d="M45.2297 144.461C42.9574 144.098 40.3515 145.052 39.584 147.069C39.3037 147.811 39.5172 148.715 39.9744 148.003C40.9587 146.482 43.171 144.934 45.2497 144.725C45.4266 144.709 45.3832 144.487 45.2297 144.461Z" fill="#6A6A6A" fill-opacity="0.46"/>
<path d="M45.146 140.487C44.255 140.559 43.4275 140.817 42.6534 141.254C42.0061 141.62 41.0717 142.211 41.2519 143.053C41.2986 143.279 41.5289 143.442 41.7658 143.393C42.4765 143.243 42.7201 142.511 43.1739 142.032C43.7345 141.431 44.4519 141.006 45.2294 140.729C45.3795 140.677 45.2828 140.477 45.146 140.487Z" fill="#6A6A6A" fill-opacity="0.46"/>
<path d="M45.7545 138.972C44.8669 139.043 44.0361 139.301 43.262 139.739C42.6146 140.105 41.6804 140.696 41.8605 141.538C41.9073 141.763 42.1408 141.927 42.3744 141.878C43.0851 141.727 43.332 140.996 43.7825 140.513C44.343 139.915 45.0638 139.491 45.8379 139.213C45.988 139.161 45.8913 138.962 45.7545 138.972Z" fill="#6A6A6A" fill-opacity="0.46"/>
<path d="M47.29 137.654C46.0821 137.327 43.6162 137.229 43.1324 138.712C43.0356 139.006 43.2792 139.254 43.5795 139.221C44.1434 139.162 44.5772 138.787 45.0543 138.516C45.7083 138.144 46.4658 137.987 47.2165 137.987C47.4034 137.987 47.4902 137.709 47.29 137.654Z" fill="#6A6A6A" fill-opacity="0.46"/>
<path d="M48.5914 134.027C47.7905 133.942 47.0097 133.994 46.2256 134.18C45.6417 134.317 44.7574 134.523 44.6139 135.179C44.5772 135.352 44.6573 135.493 44.8408 135.522C45.4381 135.623 45.9486 135.104 46.4625 134.862C47.1332 134.549 47.8739 134.409 48.6114 134.369C48.8149 134.356 48.7782 134.049 48.5914 134.027Z" fill="#6A6A6A" fill-opacity="0.46"/>
<path d="M50.9425 129.78C50.0716 129.424 49.1707 129.358 48.2464 129.525C47.5357 129.652 46.4179 130.269 46.4313 131.069C46.4346 131.262 46.5647 131.491 46.795 131.484C47.4356 131.468 47.8527 130.971 48.41 130.71C49.2408 130.315 49.9148 130.038 50.8692 130.113C51.0727 130.129 51.1194 129.855 50.9425 129.78Z" fill="#6A6A6A" fill-opacity="0.46"/>
<path d="M51.7818 125.756C50.8074 125.851 49.4994 125.766 48.7453 126.488C48.5985 126.625 48.5985 126.945 48.8421 126.997C49.9165 127.236 50.9643 126.521 51.8919 126.08C52.0821 125.992 51.972 125.74 51.7818 125.756Z" fill="#6A6A6A" fill-opacity="0.46"/>
<path d="M54.0109 122.543C52.9999 122.158 51.0312 122.076 50.6008 123.288C50.514 123.533 50.7342 123.797 50.9978 123.742C51.5017 123.637 51.7386 123.363 52.1824 123.115C52.7196 122.818 53.3468 122.733 53.9541 122.791C54.1076 122.808 54.1477 122.595 54.0109 122.543Z" fill="#6A6A6A" fill-opacity="0.46"/>
<path d="M54.8377 120.646C54.0102 120.185 52.3819 120.143 52.0882 121.276C52.0148 121.557 52.275 121.841 52.572 121.7C52.9257 121.534 53.2027 121.26 53.533 121.054C53.9067 120.819 54.3472 120.75 54.781 120.802C54.8677 120.812 54.9144 120.688 54.8377 120.646Z" fill="#6A6A6A" fill-opacity="0.46"/>
<path d="M52.3897 124.423C51.5422 124.152 50.8848 124.194 50.044 124.472C49.3566 124.7 48.3356 125.154 48.369 125.98C48.3756 126.157 48.4857 126.353 48.6926 126.349C49.4033 126.343 49.7337 125.811 50.3043 125.471C50.8982 125.115 51.699 124.841 52.3697 124.671C52.4898 124.638 52.5198 124.462 52.3897 124.423Z" fill="#6A6A6A" fill-opacity="0.46"/>
<path d="M51.0857 127.533C49.6809 127.366 48.5431 127.683 47.4487 128.565C47.3085 128.676 47.2318 128.878 47.2718 129.054C47.2818 129.087 47.2885 129.123 47.2985 129.156C47.3252 129.27 47.4053 129.378 47.5221 129.414C48.1227 129.587 48.5231 128.983 48.9902 128.695C49.6742 128.277 50.3149 127.856 51.0923 127.618C51.1391 127.605 51.1391 127.539 51.0857 127.533Z" fill="#6A6A6A" fill-opacity="0.46"/>
<path d="M50.0678 131.611C49.1569 131.33 48.1959 131.288 47.305 131.643C46.5242 131.954 45.1527 132.754 45.4864 133.733C45.5598 133.952 45.71 134.056 45.9469 134.04C46.6743 133.985 47.028 133.253 47.5653 132.852C48.266 132.323 49.1736 131.95 50.0478 131.859C50.1813 131.843 50.188 131.647 50.0678 131.611Z" fill="#6A6A6A" fill-opacity="0.46"/>
<path d="M47.8635 135.838C46.4554 135.548 43.9128 135.718 43.3155 137.282C43.1287 137.768 43.6559 138.15 44.103 137.974C44.6903 137.742 45.0807 137.223 45.5712 136.851C46.2285 136.351 47.0594 136.1 47.8736 136.008C47.9803 135.998 47.9503 135.858 47.8635 135.838Z" fill="#6A6A6A" fill-opacity="0.46"/>
<path d="M44.3839 143.085C43.5931 143.095 42.8857 143.2 42.175 143.559C41.511 143.892 40.5833 144.414 40.3598 145.156C40.273 145.45 40.5533 145.698 40.8436 145.58C41.4876 145.322 41.9548 144.669 42.542 144.294C43.136 143.915 43.7666 143.533 44.4173 143.249C44.494 143.216 44.474 143.085 44.3839 143.085Z" fill="#6A6A6A" fill-opacity="0.46"/>
<path d="M42.2435 151.425C40.8054 151.206 37.3317 151.141 36.9714 153.028C36.9413 153.195 37.1048 153.328 37.255 153.351C38.0491 153.452 38.7532 152.835 39.4072 152.479C40.2848 152.006 41.2692 151.771 42.2602 151.68C42.417 151.663 42.3837 151.444 42.2435 151.425Z" fill="#6A6A6A" fill-opacity="0.46"/>
<path d="M39.9689 153.455C38.9212 153.214 37.8968 153.207 36.8424 153.423C35.9815 153.599 34.4967 154.112 34.5334 155.163C34.5401 155.388 34.6635 155.542 34.8971 155.578C35.6545 155.702 36.3452 155 36.9492 154.641C37.8301 154.115 38.8578 153.886 39.8788 153.87C40.1091 153.867 40.2292 153.514 39.9689 153.455Z" fill="#6A6A6A" fill-opacity="0.46"/>
<path d="M38.2894 155.428C37.3751 154.909 36.3074 154.86 35.333 155.285C34.6557 155.582 33.1808 156.754 33.7014 157.766C33.7948 157.946 33.9182 158.008 34.0984 157.991C34.4121 157.965 34.5389 157.792 34.7157 157.505C34.9727 157.093 35.3798 156.744 35.7068 156.411C36.4041 155.696 37.3684 155.451 38.256 155.595C38.3461 155.611 38.3561 155.467 38.2894 155.428Z" fill="#6A6A6A" fill-opacity="0.46"/>
<path d="M55.4274 117.967C54.3263 118.362 53.0917 118.639 52.1674 119.354C51.9605 119.511 52.134 119.864 52.3876 119.802C53.5355 119.521 54.5131 118.737 55.5042 118.123C55.6009 118.061 55.5342 117.927 55.4274 117.967Z" fill="#6A6A6A" fill-opacity="0.46"/>
<path d="M47.1054 106.442C47.4358 106.498 47.7628 106.527 48.1031 106.527C48.4735 106.527 48.8639 106.286 49.1809 106.112C49.8716 105.74 50.4022 105.329 50.579 104.558C50.6424 104.281 50.3988 103.99 50.0919 104.134C49.8383 104.255 49.6013 104.343 49.3778 104.513C49.1442 104.692 48.9473 104.917 48.7104 105.097C48.4635 105.283 48.1866 105.42 47.9129 105.561C47.6093 105.717 47.3524 106.015 47.0554 106.197C46.9419 106.266 46.9686 106.419 47.1054 106.442Z" fill="#6A6A6A" fill-opacity="0.46"/>
<path d="M30.435 140.869C31.1658 140.839 31.8965 140.813 32.6306 140.784C33.0578 140.767 32.9276 140.222 32.4872 140.274C31.7697 140.359 31.0557 140.444 30.3382 140.529C30.0413 140.562 30.148 140.878 30.435 140.869Z" fill="#6A6A6A" fill-opacity="0.46"/>
<path d="M50.3877 99.7911C50.2208 102.838 51.5222 103.51 48.8561 108.117C46.4336 112.303 38.7858 122.432 36.717 126.82C34.5881 131.326 32.773 135.538 32.0155 140.498C31.1947 145.856 30.7175 150.127 27.8779 154.897C27.6744 155.24 26.4431 157.552 26.7134 157.261C30.6174 153.039 33.5471 148.582 34.8384 144.769C36.8204 138.927 36.2332 129.354 40.0337 124.244C46.417 115.666 54.1082 110.987 50.4544 99.7879C50.4444 99.752 50.3977 99.7552 50.3877 99.7911Z" fill="#6A6A6A" fill-opacity="0.46"/>
</svg>
