<svg width="407" height="403" viewBox="0 0 407 403" fill="none" xmlns="http://www.w3.org/2000/svg">
<path d="M367.308 122.383C367.308 122.383 366.906 122.239 366.119 122.137C365.336 122.02 364.175 121.926 362.702 121.878C359.755 121.798 355.526 122.01 350.613 123.043C348.159 123.565 345.543 124.305 342.856 125.279C340.171 126.258 337.435 127.52 334.713 129.011C331.992 130.507 329.336 132.31 326.758 134.291C324.186 136.276 321.725 138.493 319.468 140.899C317.179 143.277 315.036 145.784 313.083 148.401C311.146 151.013 309.287 153.639 307.66 156.277C306.031 158.914 304.559 161.52 303.329 164.069C302.124 166.619 301.119 169.093 300.435 171.441C299.773 173.793 299.388 176.006 299.364 177.975C299.354 179.942 299.68 181.65 300.194 182.98C300.335 183.304 300.44 183.629 300.594 183.909C300.743 184.189 300.883 184.454 301.016 184.702C301.308 185.175 301.591 185.563 301.819 185.882C302.333 186.472 302.608 186.784 302.608 186.784C302.608 186.784 302.294 186.505 301.706 185.978C301.177 185.402 300.342 184.547 299.69 183.196C299.011 181.87 298.462 180.098 298.307 178.015C298.149 175.936 298.356 173.572 298.899 171.078C299.439 168.582 300.31 165.946 301.445 163.261C302.586 160.576 303.954 157.818 305.569 155.076C307.177 152.333 308.94 149.562 310.935 146.87C312.909 144.174 315.108 141.535 317.464 139.051C319.835 136.574 322.419 134.289 325.126 132.24C327.822 130.182 330.686 128.424 333.562 126.929C336.434 125.427 339.362 124.272 342.195 123.378C345.025 122.478 347.78 121.892 350.338 121.526C355.461 120.776 359.79 120.96 362.749 121.345C364.234 121.529 365.378 121.789 366.152 121.993C366.927 122.19 367.308 122.383 367.308 122.383Z" fill="#6A6A6A" fill-opacity="0.46"/>
<path d="M379.794 129.838C379.794 129.838 379.657 129.665 379.381 129.364C379.106 129.068 378.675 128.656 378.076 128.228C377.922 128.126 377.765 128.016 377.587 127.917C377.461 127.843 377.215 127.713 377.035 127.623C376.693 127.47 376.252 127.35 375.799 127.324C374.884 127.269 373.827 127.561 372.75 128.126C371.672 128.69 370.562 129.485 369.438 130.398C368.32 131.326 367.189 132.382 366.037 133.503C363.735 135.752 361.362 138.281 358.967 140.81C356.569 143.337 354.135 145.857 351.758 148.145C350.574 149.296 349.384 150.364 348.244 151.367C347.11 152.379 345.988 153.285 344.933 154.1C342.829 155.736 340.927 156.918 339.556 157.654C338.872 158.027 338.309 158.276 337.93 158.45C337.545 158.611 337.343 158.698 337.343 158.698C337.343 158.698 337.517 158.561 337.845 158.308C338.173 158.06 338.636 157.67 339.223 157.187C340.393 156.198 341.983 154.725 343.808 152.877C344.721 151.95 345.679 150.922 346.706 149.843C347.726 148.758 348.771 147.586 349.873 146.386C352.068 143.979 354.397 141.388 356.804 138.844C359.216 136.303 361.7 133.799 364.231 131.61C365.499 130.518 366.781 129.514 368.081 128.643C368.736 128.207 369.386 127.804 370.04 127.437C370.701 127.084 371.374 126.785 372.043 126.54C372.716 126.299 373.391 126.116 374.065 126.036C374.736 125.954 375.404 125.993 376.001 126.134C376.607 126.279 377.116 126.511 377.574 126.825C377.78 126.979 377.915 127.08 378.112 127.272C378.273 127.43 378.413 127.588 378.545 127.736C379.068 128.341 379.367 128.885 379.548 129.259C379.641 129.444 379.699 129.59 379.736 129.687C379.775 129.787 379.794 129.838 379.794 129.838Z" fill="#6A6A6A" fill-opacity="0.46"/>
<path d="M353.672 152.009L352.654 152.116L351.66 152.279L350.678 152.491C350.353 152.569 350.034 152.668 349.715 152.755C349.083 152.957 348.465 153.191 347.862 153.443L346.968 153.858L346.103 154.322C345.538 154.653 344.985 154.997 344.444 155.362C343.907 155.734 343.383 156.12 342.872 156.528C341.857 157.35 340.886 158.233 339.933 159.142C338.988 160.057 338.069 161.013 337.158 161.986L334.383 164.899C332.515 166.856 330.553 168.798 328.281 170.49L328.231 170.527L328.121 170.593C327.403 171.019 326.569 171.716 325.805 172.425C325.028 173.136 324.258 173.886 323.505 174.656C322.757 175.431 322 176.207 321.268 177.005L319.078 179.405C318.696 179.823 318.439 180.137 318.101 180.596C317.841 180.966 317.573 181.379 317.343 181.812C316.879 182.674 316.538 183.593 316.312 184.535C316.091 185.477 316.022 186.454 316.127 187.413C316.179 187.892 316.265 188.372 316.404 188.838C316.457 189.075 316.54 189.306 316.625 189.534L316.685 189.71L316.702 189.752L316.706 189.763C316.726 189.807 316.678 189.713 316.684 189.727L316.697 189.748L316.742 189.84C316.785 189.925 316.777 189.886 316.788 189.915C316.792 189.926 316.834 189.97 316.852 190C317.062 190.251 317.452 190.506 317.885 190.702C318.32 190.908 318.807 191.066 319.303 191.202C320.305 191.469 321.368 191.63 322.438 191.735C324.582 191.942 326.773 191.93 328.951 191.747C331.127 191.555 333.301 191.217 335.42 190.653C337.533 190.076 339.619 189.309 341.488 188.123C339.75 189.49 337.705 190.472 335.6 191.215C333.49 191.955 331.297 192.484 329.077 192.812C326.852 193.137 324.597 193.311 322.322 193.216C321.186 193.165 320.043 193.052 318.893 192.809C318.319 192.681 317.743 192.53 317.164 192.295C316.592 192.057 315.997 191.764 315.459 191.214C315.392 191.135 315.337 191.081 315.261 190.98C315.2 190.897 315.103 190.754 315.083 190.715L315.031 190.626L314.983 190.533L314.959 190.482L314.861 190.281C314.728 190.013 314.599 189.744 314.497 189.462C314.27 188.905 314.122 188.318 314.01 187.727C313.782 186.545 313.771 185.322 313.949 184.13C314.119 182.937 314.497 181.779 315.02 180.692C315.275 180.151 315.576 179.627 315.925 179.089C316.213 178.651 316.624 178.098 316.964 177.689C317.669 176.821 318.383 175.976 319.121 175.145C319.858 174.313 320.604 173.488 321.38 172.682C322.154 171.873 322.954 171.08 323.795 170.305C324.655 169.537 325.501 168.786 326.685 168.091L326.525 168.194C327.042 167.811 327.553 167.419 328.058 167.014C328.559 166.603 329.057 166.181 329.548 165.746C330.525 164.875 331.506 163.984 332.472 163.059L335.392 160.271C336.392 159.356 337.411 158.442 338.471 157.568C339.002 157.13 339.542 156.702 340.094 156.284C340.656 155.876 341.228 155.481 341.813 155.103C342.4 154.727 343.002 154.375 343.618 154.041L344.551 153.565L345.518 153.148L346.502 152.777L347.507 152.467C347.845 152.382 348.182 152.288 348.525 152.215C348.868 152.155 349.209 152.089 349.554 152.038C350.244 151.949 350.933 151.892 351.624 151.881L352.655 151.911L353.672 152.009Z" fill="#6A6A6A" fill-opacity="0.46"/>
<path d="M381.009 133.856C388.633 146.486 371.128 157.013 364.329 165.301C359.914 170.684 356.336 176.313 350.274 180.118C345.232 183.284 338.388 184.632 332.48 184.354C332.109 184.336 331.901 184.896 332.304 185.012C338.502 186.799 344.273 186.359 350.214 183.869C357.95 180.629 362.253 173.715 367.102 167.374C371.934 161.057 378.774 156.341 382.101 148.961C384.301 144.09 384.463 138.137 381.078 133.805C381.046 133.76 380.982 133.811 381.009 133.856Z" fill="#6A6A6A" fill-opacity="0.46"/>
<path d="M384.091 137.253C390.337 158.719 375.932 178.038 361.395 192.651C361.256 192.79 361.491 193.015 361.641 192.893C377.771 179.47 392.546 158.687 384.174 137.221C384.153 137.168 384.076 137.201 384.091 137.253Z" fill="#6A6A6A" fill-opacity="0.46"/>
<path d="M303.201 189.984C311.211 201.444 326.146 203.311 339.287 201.617C352.844 199.868 365.923 192.715 373.041 181.071C373.127 180.93 372.94 180.777 372.832 180.915C357.757 200.171 322.057 207.894 303.323 189.865C303.249 189.793 303.146 189.91 303.201 189.984Z" fill="#6A6A6A" fill-opacity="0.46"/>
<path d="M359.913 125.152C356.306 131.552 351.824 137.459 346.477 142.567C343.928 145.005 341.121 147.163 338.21 149.164C337.701 149.516 335.059 151.736 334.421 150.983C333.704 150.139 333.061 150.164 332.062 150.121C331.713 150.107 331.406 150.596 331.774 150.81C332.637 151.258 333.408 151.83 334.08 152.534C334.321 152.809 334.66 152.84 334.97 152.652C345.841 146.011 354.683 136.631 359.996 125.185C360.02 125.133 359.94 125.106 359.913 125.152Z" fill="#6A6A6A" fill-opacity="0.46"/>
<path d="M333.231 153.087C333.202 155.002 333.396 156.376 331.343 157.243C330.277 157.696 329.3 158.278 328.307 158.863C325.456 160.548 322.877 162.645 320.483 164.906C316.319 168.828 312.31 174.018 310.654 179.499C310.577 179.758 310.947 180.022 311.106 179.75C313.728 175.296 316.095 171.009 319.642 167.16C323.579 162.886 328.507 159.732 333.642 157.025C333.784 156.95 333.866 156.835 333.851 156.671C333.731 155.476 333.611 154.28 333.492 153.084C333.477 152.942 333.232 152.94 333.231 153.087Z" fill="#6A6A6A" fill-opacity="0.46"/>
<path d="M378.836 157.047C381.383 160.137 381.418 164.677 380.433 168.356C380.347 168.675 380.758 168.846 380.92 168.548C383.118 164.519 381.659 160.294 378.891 157.01C378.862 156.976 378.811 157.016 378.836 157.047Z" fill="#6A6A6A" fill-opacity="0.46"/>
<path d="M374.171 162.058C376.435 166.823 376.318 171.883 375.778 177.003C375.742 177.355 376.214 177.448 376.37 177.152C378.96 172.165 377.541 166.324 374.471 161.888C374.362 161.727 374.085 161.883 374.171 162.058Z" fill="#6A6A6A" fill-opacity="0.46"/>
<path d="M368.856 166.802C370.704 173.153 369.705 179.249 368.065 185.512C367.968 185.872 368.499 185.927 368.653 185.659C372.025 179.85 371.702 172.685 369.181 166.675C369.094 166.466 368.795 166.596 368.856 166.802Z" fill="#6A6A6A" fill-opacity="0.46"/>
<path d="M361.16 174.307C363.199 181.556 360.78 188.798 356.396 194.756C356.229 194.985 356.532 195.31 356.763 195.116C362.931 189.973 364.321 181.379 361.401 174.208C361.339 174.051 361.115 174.151 361.16 174.307Z" fill="#6A6A6A" fill-opacity="0.46"/>
<path d="M353.651 181.684C351.279 188.686 346.763 194.488 341.714 199.853C341.464 200.119 341.872 200.449 342.143 200.273C348.728 196.084 352.519 189.181 353.902 181.748C353.93 181.605 353.696 181.546 353.651 181.684Z" fill="#6A6A6A" fill-opacity="0.46"/>
<path d="M343.865 186.09C340.623 191.915 335.993 196.369 330.403 200.044C330.107 200.234 330.388 200.695 330.702 200.56C337.08 197.836 341.718 192.52 344.108 186.186C344.167 186.024 343.945 185.944 343.865 186.09Z" fill="#6A6A6A" fill-opacity="0.46"/>
<path d="M333.388 193.48C330.922 196.202 327.845 198.25 324.661 200.086C324.388 200.243 324.656 200.612 324.923 200.528C328.686 199.347 331.41 196.793 333.594 193.634C333.69 193.496 333.5 193.353 333.388 193.48Z" fill="#6A6A6A" fill-opacity="0.46"/>
<path d="M384.367 147.222C375.006 166.944 360.925 186.673 337.796 191.191C337.576 191.232 337.613 191.548 337.841 191.529C361.352 189.596 376.82 166.979 384.427 147.247C384.441 147.208 384.383 147.185 384.367 147.222Z" fill="#6A6A6A" fill-opacity="0.46"/>
<path d="M385.007 153.452C376.343 171.265 364.594 187.742 345.009 194.762C344.778 194.844 344.876 195.222 345.119 195.173C364.818 191.154 378.643 170.752 385.09 153.485C385.109 153.434 385.031 153.405 385.007 153.452Z" fill="#6A6A6A" fill-opacity="0.46"/>
<path d="M334.127 156.599C331.578 158.832 327.712 163.495 329.401 167.07C329.507 167.293 329.845 167.369 330.003 167.145C331.019 165.728 331.032 164.019 331.569 162.4C332.233 160.388 333.053 158.487 334.247 156.718C334.299 156.641 334.203 156.528 334.127 156.599Z" fill="#6A6A6A" fill-opacity="0.46"/>
<path d="M329.735 158.805C327.151 161.099 324.429 165.347 326.186 168.783C326.308 169.023 326.739 169.098 326.837 168.78C327.315 167.204 327.243 165.603 327.68 164.005C328.185 162.143 328.764 160.577 329.918 158.987C330 158.872 329.847 158.704 329.735 158.805Z" fill="#6A6A6A" fill-opacity="0.46"/>
<path d="M325.931 161.232C323.683 163.675 321.254 168.143 323.088 171.39C323.262 171.693 323.682 171.653 323.761 171.301C324.102 169.803 324 168.204 324.173 166.675C324.382 164.795 325.166 163.014 326.209 161.44C326.333 161.253 326.085 161.068 325.931 161.232Z" fill="#6A6A6A" fill-opacity="0.46"/>
<path d="M322.011 165.119C319.528 168.135 316.854 173.4 319.252 177.082C319.408 177.317 319.847 177.263 319.932 176.989C320.479 175.196 320.243 173.419 320.5 171.574C320.806 169.366 321.314 167.297 322.312 165.286C322.402 165.106 322.13 164.973 322.011 165.119Z" fill="#6A6A6A" fill-opacity="0.46"/>
<path d="M317.146 168.758C315.994 171.046 315.119 173.426 314.612 175.923C314.248 177.718 313.893 180.605 314.909 182.208C315.07 182.469 315.483 182.37 315.59 182.12C316.349 180.334 315.809 178.024 316.009 176.091C316.264 173.594 316.561 171.243 317.306 168.821C317.338 168.717 317.194 168.659 317.146 168.758Z" fill="#6A6A6A" fill-opacity="0.46"/>
<path d="M313.204 175.334C311.822 176.932 310.992 178.931 311.065 181.036C311.127 182.939 311.816 185.451 313.725 186.215C314.014 186.328 314.397 186.079 314.325 185.758C313.974 184.17 312.949 182.93 312.64 181.278C312.262 179.279 312.441 177.254 313.356 175.418C313.403 175.326 313.269 175.262 313.204 175.334Z" fill="#6A6A6A" fill-opacity="0.46"/>
<path d="M337.922 150.795C337.156 151.77 336.726 152.877 336.587 154.095C336.482 155.017 336.618 156.864 337.67 157.222C337.902 157.301 338.093 157.163 338.149 156.946C338.256 156.536 338.117 156.296 337.958 155.91C337.762 155.426 337.67 154.884 337.576 154.373C337.354 153.194 337.608 151.984 338.148 150.923C338.216 150.788 338.012 150.685 337.922 150.795Z" fill="#6A6A6A" fill-opacity="0.46"/>
<path d="M340.084 148.918C339.416 149.777 339.08 150.765 339.045 151.839C339.02 152.648 339.178 154.236 340.13 154.502C340.286 154.545 340.471 154.473 340.49 154.294C340.517 154.034 340.493 153.818 340.353 153.59C340.058 153.11 339.879 152.61 339.777 152.065C339.59 151.056 339.829 149.999 340.361 149.125C340.472 148.94 340.224 148.738 340.084 148.918Z" fill="#6A6A6A" fill-opacity="0.46"/>
<path d="M341.828 148.227C341.602 148.945 341.516 149.666 341.542 150.415C341.558 150.781 341.59 151.229 341.73 151.569C341.869 151.907 342.184 152.163 342.454 152.402C342.711 152.631 343.138 152.358 343.087 152.043C343.044 151.776 343.036 151.502 342.977 151.24C342.903 150.921 342.708 150.619 342.597 150.31C342.366 149.688 342.302 149.01 342.333 148.353C342.346 148.079 341.921 147.931 341.828 148.227Z" fill="#6A6A6A" fill-opacity="0.46"/>
<path d="M344.67 145.731C344.09 146.843 343.987 147.902 344.173 149.129C344.321 150.125 344.66 151.593 345.75 151.905C345.98 151.97 346.274 151.861 346.291 151.593C346.351 150.658 345.684 149.941 345.404 149.06C345.092 148.081 345.089 146.873 345.175 145.857C345.201 145.556 344.804 145.473 344.67 145.731Z" fill="#6A6A6A" fill-opacity="0.46"/>
<path d="M347.715 142.745C346.818 142.944 346.763 144.575 346.757 145.279C346.751 146.337 347.063 147.707 348.143 148.197C348.389 148.311 348.651 148.078 348.625 147.832C348.532 146.964 348.022 146.138 347.863 145.269C347.77 144.755 347.795 144.234 347.876 143.718C347.934 143.366 348.036 143.117 347.838 142.792C347.814 142.758 347.756 142.735 347.715 142.745Z" fill="#6A6A6A" fill-opacity="0.46"/>
<path d="M350.574 138.969C350.126 139.989 349.875 141.032 349.8 142.141C349.734 143.105 349.736 144.399 350.31 145.215C350.469 145.445 350.789 145.26 350.779 145.022C350.746 144.158 350.359 143.308 350.279 142.429C350.175 141.281 350.369 140.121 350.738 139.034C350.774 138.929 350.622 138.865 350.574 138.969Z" fill="#6A6A6A" fill-opacity="0.46"/>
<path d="M352.309 136.927C351.795 138.141 351.451 139.403 351.338 140.71C351.249 141.702 351.359 143.246 352.013 144.043C352.161 144.224 352.448 144.146 352.487 143.92C352.655 142.901 352.236 141.748 352.208 140.706C352.174 139.421 352.144 138.221 352.392 136.949C352.4 136.901 352.326 136.883 352.309 136.927Z" fill="#6A6A6A" fill-opacity="0.46"/>
<path d="M353.849 134.874C353.065 137.372 352.405 140.757 353.783 143.154C353.892 143.347 354.289 143.38 354.288 143.087C354.29 141.82 353.993 140.602 353.844 139.35C353.668 137.871 353.767 136.377 354.019 134.914C354.034 134.819 353.879 134.781 353.849 134.874Z" fill="#6A6A6A" fill-opacity="0.46"/>
<path d="M355.615 132.17C354.91 134.472 354.385 137.444 355.78 139.582C355.9 139.766 356.245 139.678 356.251 139.456C356.326 137.034 355.602 134.697 355.867 132.235C355.884 132.095 355.66 132.027 355.615 132.17Z" fill="#6A6A6A" fill-opacity="0.46"/>
<path d="M356.679 130.177C356.155 131.54 355.845 132.971 355.857 134.43C355.872 135.853 355.932 137.615 357.076 138.639C357.19 138.745 357.425 138.653 357.427 138.494C357.449 137.218 356.815 135.97 356.605 134.717C356.354 133.22 356.484 131.687 356.847 130.22C356.872 130.124 356.712 130.087 356.679 130.177Z" fill="#6A6A6A" fill-opacity="0.46"/>
<path d="M357.57 127.835C357.24 130.273 356.835 133.45 357.803 135.771C357.9 136 358.296 135.97 358.31 135.701C358.37 134.568 358.129 133.478 358.02 132.346C357.879 130.865 357.897 129.372 358.006 127.889C358.026 127.611 357.607 127.557 357.57 127.835Z" fill="#6A6A6A" fill-opacity="0.46"/>
<path d="M359.58 126.551C358.642 129.193 357.727 133.108 359.362 135.652C359.483 135.841 359.82 135.747 359.833 135.527C359.916 134.189 359.555 132.763 359.408 131.429C359.226 129.807 359.359 128.169 359.664 126.573C359.673 126.522 359.595 126.505 359.58 126.551Z" fill="#6A6A6A" fill-opacity="0.46"/>
<path d="M360.483 125.662C359.953 127.012 359.801 128.402 359.98 129.829C360.123 130.987 360.612 132.576 361.751 133.13C361.896 133.201 362.079 133.054 362.051 132.901C361.868 131.887 361.141 130.923 360.791 129.945C360.304 128.589 360.316 127.094 360.651 125.705C360.674 125.607 360.517 125.572 360.483 125.662Z" fill="#6A6A6A" fill-opacity="0.46"/>
<path d="M359.481 125.918C359.459 128.549 361.066 131.609 363.92 132.052C364.212 132.097 364.408 131.675 364.145 131.511C361.922 130.143 360.1 128.653 359.828 125.914C359.81 125.723 359.483 125.717 359.481 125.918Z" fill="#6A6A6A" fill-opacity="0.46"/>
<path d="M357.317 134.707C351.899 141.877 345.225 147.443 338.066 152.848C337.952 152.935 338.06 153.139 338.193 153.07C346.163 148.86 352.512 142.131 357.457 134.811C357.516 134.72 357.383 134.617 357.317 134.707Z" fill="#6A6A6A" fill-opacity="0.46"/>
<path d="M359.428 129.477C357.227 132.616 354.775 135.609 352.213 138.466C352.017 138.686 352.356 139.017 352.58 138.827C355.677 136.222 357.917 133.198 359.58 129.562C359.618 129.475 359.484 129.4 359.428 129.477Z" fill="#6A6A6A" fill-opacity="0.46"/>
<path d="M359.808 123.3C359.696 125.361 360.446 126.887 362.022 128.214C363.271 129.262 365.781 130.367 367.036 128.766C367.195 128.563 367.218 128.233 367.041 128.035C366.247 127.14 365.024 127.084 363.95 126.681C362.462 126.121 361.037 124.611 360.398 123.222C360.28 122.965 359.825 122.983 359.808 123.3Z" fill="#6A6A6A" fill-opacity="0.46"/>
<path d="M321.144 142.809C313.921 149.491 308.979 157.658 305.561 166.756C303.023 173.524 300.01 184.582 306.814 189.911C307.042 190.09 307.431 189.828 307.285 189.559C305.318 185.863 304.078 182.447 304.259 178.208C304.448 173.713 306.114 169.23 307.753 165.066C310.895 157.07 315.896 149.675 321.327 142.987C321.419 142.875 321.254 142.706 321.144 142.809Z" fill="#6A6A6A" fill-opacity="0.46"/>
<path d="M299.701 179.386C302.163 174.27 306.354 171.939 311.796 170.823C312.176 170.744 312.206 170.191 311.796 170.144C306.125 169.468 300.714 174.121 299.45 179.322C299.412 179.471 299.641 179.511 299.701 179.386Z" fill="#6A6A6A" fill-opacity="0.46"/>
<path d="M298.751 174.445C300.735 169.941 304.237 166.723 308.534 164.334C308.768 164.2 308.716 163.763 308.401 163.84C303.173 165.097 299.622 169.335 298.583 174.402C298.563 174.498 298.712 174.532 298.751 174.445Z" fill="#6A6A6A" fill-opacity="0.46"/>
<path d="M301.673 165.148C305.305 160.935 309.956 158.223 315.251 156.504C315.548 156.408 315.403 155.988 315.116 156.012C309.219 156.516 304.316 159.961 301.396 164.941C301.286 165.13 301.523 165.324 301.673 165.148Z" fill="#6A6A6A" fill-opacity="0.46"/>
<path d="M306.146 155.654C309.606 152.75 313.684 151.019 318.135 150.21C318.369 150.167 318.395 149.792 318.133 149.785C313.311 149.638 308.935 151.775 305.9 155.412C305.775 155.562 305.994 155.779 306.146 155.654Z" fill="#6A6A6A" fill-opacity="0.46"/>
<path d="M312.039 146.122C315.345 144.674 318.864 143.821 322.368 143.003C322.645 142.938 322.595 142.563 322.313 142.575C318.538 142.742 315.158 144.077 311.955 145.973C311.869 146.024 311.951 146.16 312.039 146.122Z" fill="#6A6A6A" fill-opacity="0.46"/>
<path d="M368.272 122.938C373.228 126.874 379.18 128.746 382.133 134.769C382.266 135.033 382.665 134.931 382.639 134.636C382.368 131.273 381.226 128.959 378.729 126.671C375.99 124.166 371.751 123.872 368.404 122.715C368.261 122.666 368.156 122.843 368.272 122.938Z" fill="#6A6A6A" fill-opacity="0.46"/>
<path d="M210.468 21.1176C215.683 19.8801 220.085 22.3904 224.328 25.0339C227.52 27.0229 230.741 28.7532 234.296 30.0341C241.407 32.5959 248.987 33.742 256.326 35.48C260.087 36.3689 263.795 37.4645 267.376 38.9117C270.331 40.11 273.065 42.4163 276.283 42.7608C278.205 42.9644 279.471 41.3932 279.708 39.7456C280.027 37.551 278.015 35.9335 276.235 35.1689C275.919 35.033 275.434 35.3638 275.703 35.7063C276.36 36.5365 280.055 40.77 276.258 41.1858C274.779 41.3482 272.401 39.5433 271.082 38.8568C268.501 37.5125 265.732 36.5109 262.968 35.6105C257.148 33.7127 251.068 32.6326 245.103 31.2763C238.854 29.8522 232.681 28.0054 226.978 25.0796C221.733 22.3922 216.541 19.0372 210.418 20.9549C210.312 20.9859 210.358 21.1454 210.468 21.1176Z" fill="#6A6A6A" fill-opacity="0.46"/>
<path d="M203.874 16.8443C205.194 21.5481 210.987 16.5919 213.194 15.8107C220.112 13.358 228.79 17.8973 235.085 20.2785C241.947 22.8769 248.982 25.0118 256.108 26.7924C259.871 27.7337 263.213 28.083 266.305 30.479C268.397 32.102 271.103 32.7353 273.647 33.2631C273.791 33.2936 273.835 33.1034 273.704 33.0563C270.498 31.842 267.17 30.7505 264.977 28.0013C264.163 26.9804 260.074 26.6879 258.757 26.3446C252.032 24.6038 245.427 22.4299 238.951 19.95C233.058 17.6935 227.156 14.0055 220.848 13.0823C218.45 12.7321 216.014 13.1212 213.75 13.9C211.208 14.7745 206.351 20.0437 203.914 16.8274C203.9 16.808 203.867 16.8215 203.874 16.8443Z" fill="#6A6A6A" fill-opacity="0.46"/>
<path d="M208.819 25.7035C206.021 25.3561 205.168 27.8946 205.088 30.2288C204.956 34.0473 208.519 38.3371 210.812 41.11C216.298 47.7502 225.101 52.8186 233.103 55.9383C247.299 61.4759 265.173 63.5672 278.516 55.021C278.621 54.9541 278.522 54.7922 278.413 54.8559C266.584 61.4485 253.319 59.4654 240.698 56.2507C233.288 54.3639 226.698 51.0534 220.361 46.883C215.326 43.5723 202.071 32.234 208.865 25.8629C208.915 25.8197 208.893 25.7122 208.819 25.7035Z" fill="#6A6A6A" fill-opacity="0.46"/>
<path d="M204.009 15.6924C210.618 8.84788 217.892 4.2838 227.735 3.89959C237.901 3.50407 248.449 6.71311 257.935 9.99671C267.762 13.3961 276.191 18.8844 281.392 27.9326C285.384 34.8816 283.827 45.1276 280.034 51.7736C279.842 52.1097 280.322 52.4751 280.594 52.1803C286.107 46.2341 286.406 36.6111 283.78 29.3446C280.407 20.0014 270.532 13.4401 261.562 10.0247C243.484 3.14699 216.711 -3.56934 203.87 15.5899C203.815 15.6724 203.943 15.762 204.009 15.6924Z" fill="#6A6A6A" fill-opacity="0.46"/>
<path d="M206.999 21.5765C200.046 23.6888 202.594 34.4137 204.395 39.141C208.59 50.1389 218.836 57.3551 229.506 61.7486C238.804 65.5775 249.056 66.9843 259.093 66.179C268.493 65.4289 278.72 61.9415 282.873 52.9504C284.356 49.7395 284.759 46.1656 284.692 42.6737C284.689 42.4516 284.352 42.4599 284.342 42.6789C283.516 65.9612 255.441 67.7458 237.607 63.3604C225.732 60.4387 213.627 53.6356 207.16 43.1778C204.292 38.5414 198.984 24.6521 207.023 21.6578C207.077 21.6374 207.055 21.5593 206.999 21.5765Z" fill="#6A6A6A" fill-opacity="0.46"/>
<path d="M220.88 49.4591C220.696 51.2711 220.821 53.0198 221.223 54.7971C221.528 56.1218 222.431 57.9765 223.75 58.5187C224.032 58.6354 224.43 58.4956 224.404 58.14C224.318 56.9296 223.456 55.7666 222.905 54.7003C222.028 53.0085 221.414 51.3389 221.143 49.4552C221.117 49.289 220.897 49.2922 220.88 49.4591Z" fill="#6A6A6A" fill-opacity="0.46"/>
<path d="M225.494 53.204C224.774 54.2532 225.421 56.1445 225.723 57.2897C226.068 58.6204 226.868 60.4474 228.338 60.8339C228.562 60.8926 228.773 60.7164 228.776 60.4975C228.787 59.3412 227.89 58.1101 227.318 57.1355C226.845 56.3292 226.52 55.4587 226.243 54.5744C226.053 53.973 226.067 53.6266 225.634 53.1856C225.589 53.1438 225.526 53.161 225.494 53.204Z" fill="#6A6A6A" fill-opacity="0.46"/>
<path d="M230.551 56.6148C230.226 58.1382 229.616 60.221 230.386 61.689C230.52 61.9385 230.947 61.9321 231.069 61.6789C231.785 60.1823 231.099 58.1253 230.721 56.6122C230.7 56.5309 230.567 56.5329 230.551 56.6148Z" fill="#6A6A6A" fill-opacity="0.46"/>
<path d="M234.726 58.2629C234.231 58.9626 233.691 59.6303 233.364 60.4223C233.084 61.0927 232.678 61.7617 232.777 62.5049C232.826 62.8471 233.182 63.0018 233.458 62.7691C234.037 62.2804 234.185 61.5303 234.434 60.8441C234.731 60.033 234.778 59.1766 234.887 58.3259C234.899 58.231 234.785 58.1804 234.726 58.2629Z" fill="#6A6A6A" fill-opacity="0.46"/>
<path d="M237.912 58.9088C237.56 59.6717 237.407 60.484 237.012 61.228C236.652 61.8996 235.868 62.5187 235.771 63.2942C235.744 63.5134 235.868 63.7206 236.118 63.7234C237.132 63.7313 237.754 62.6181 238.085 61.8228C238.49 60.8632 238.707 59.854 238.215 58.9043C238.16 58.7941 237.966 58.797 237.912 58.9088Z" fill="#6A6A6A" fill-opacity="0.46"/>
<path d="M243.014 60.0949C242.224 60.7958 241.685 61.6595 240.956 62.4248C240.346 63.0676 239.59 63.7353 239.498 64.6545C239.478 64.8442 239.68 64.9882 239.854 64.9922C240.878 65.0097 241.653 64.0738 242.165 63.3085C242.807 62.3485 243.338 61.3672 243.313 60.2113C243.31 60.0546 243.122 59.9953 243.014 60.0949Z" fill="#6A6A6A" fill-opacity="0.46"/>
<path d="M247.871 60.8572C246.97 61.2331 246.505 62.2297 245.842 62.9091C245.051 63.7179 244.107 64.3361 243.731 65.4294C243.658 65.6461 243.862 65.8586 244.078 65.8587C245.36 65.8658 246.242 64.9153 246.964 63.9737C247.575 63.1775 248.492 62.1154 248.251 61.0606C248.216 60.9142 248.017 60.7962 247.871 60.8572Z" fill="#6A6A6A" fill-opacity="0.46"/>
<path d="M252.957 61.0498C251.916 61.6271 251.229 62.7152 250.382 63.5411C249.975 63.9391 248.587 65.1715 249.268 65.818C249.972 66.487 251.243 65.2237 251.666 64.7601C252.486 63.866 253.526 62.8151 253.713 61.6005C253.78 61.1781 253.374 60.8183 252.957 61.0498Z" fill="#6A6A6A" fill-opacity="0.46"/>
<path d="M258.16 61.3349C257.947 61.3478 257.76 61.3669 257.637 61.5647C257.289 62.1317 256.918 62.6827 256.506 63.2114C256.192 63.6113 255.841 63.9823 255.517 64.3725C255.177 64.7826 254.955 65.3314 254.669 65.7831C254.506 66.037 254.842 66.3489 255.096 66.1884C255.515 65.9208 256.124 65.6309 256.442 65.2506C256.805 64.8173 257.115 64.3522 257.414 63.8774C257.778 63.2971 258.766 62.0935 258.315 61.4175C258.281 61.369 258.223 61.3307 258.16 61.3349Z" fill="#6A6A6A" fill-opacity="0.46"/>
<path d="M264.754 59.8019C263.968 60.5157 263.598 61.5664 262.992 62.4344C262.395 63.2859 261.315 64.1478 261.313 65.2453C261.313 65.4772 261.523 65.6766 261.76 65.6698C262.93 65.6362 263.701 64.4032 264.217 63.5039C264.82 62.4498 265.513 61.1493 265.27 59.9249C265.223 59.6904 264.909 59.6591 264.754 59.8019Z" fill="#6A6A6A" fill-opacity="0.46"/>
<path d="M269.553 59.9494C269.347 60.6482 268.979 61.2122 268.656 61.8571C268.355 62.4495 267.912 62.8741 267.722 63.5139C267.631 63.8288 267.955 64.1245 268.271 64.0349C269.878 63.5701 270.391 61.495 270.415 60.051C270.424 59.5544 269.689 59.4934 269.553 59.9494Z" fill="#6A6A6A" fill-opacity="0.46"/>
<path d="M274.829 57.7819C274.704 58.9432 274.067 59.7659 273.506 60.7475C273.383 60.9616 273.647 61.2484 273.872 61.0948C274.931 60.3672 275.239 58.9908 275.182 57.7767C275.172 57.5515 274.852 57.566 274.829 57.7819Z" fill="#6A6A6A" fill-opacity="0.46"/>
<path d="M261.288 20.9089C262.451 17.3253 261.453 10.4196 257.438 8.72853C257.162 8.61177 256.917 8.9126 257.124 9.13815C259.88 12.1706 262.001 16.7408 261.201 20.8873C261.192 20.9397 261.269 20.9614 261.288 20.9089Z" fill="#6A6A6A" fill-opacity="0.46"/>
<path d="M267.123 23.9004C268.366 20.149 267.496 12.8659 263.282 11.0242C263.01 10.9042 262.765 11.2083 262.972 11.4338C265.9 14.6008 267.93 19.5644 267.036 23.8788C267.027 23.9344 267.104 23.9529 267.123 23.9004Z" fill="#6A6A6A" fill-opacity="0.46"/>
<path d="M271.593 27.3101C273.01 23.8078 273.758 15.7954 269.412 13.7533C269.133 13.6235 268.902 13.9405 269.099 14.1629C272.045 17.47 272.647 23.1828 271.506 27.2885C271.494 27.3442 271.571 27.3627 271.593 27.3101Z" fill="#6A6A6A" fill-opacity="0.46"/>
<path d="M275.603 32.1877C277.613 28.9249 279.651 21.1679 275.689 18.4376C275.463 18.2809 275.201 18.5853 275.335 18.7956C277.683 22.5327 277.346 28.2659 275.526 32.1464C275.503 32.1958 275.574 32.2339 275.603 32.1877Z" fill="#6A6A6A" fill-opacity="0.46"/>
<path d="M279.632 35.3057C281.018 33.218 281.867 30.7235 281.934 28.2275C281.979 26.656 281.831 24.5093 280.383 23.5641C280.15 23.4108 279.908 23.7083 280.025 23.9221C281.853 27.1575 281.109 32.0736 279.554 35.2612C279.529 35.3138 279.599 35.352 279.632 35.3057Z" fill="#6A6A6A" fill-opacity="0.46"/>
<path d="M256.509 19.6816C257.668 16.0981 256.673 9.19232 252.655 7.50128C252.383 7.38447 252.138 7.6853 252.345 7.91085C255.098 10.9433 257.222 15.5103 256.422 19.6601C256.413 19.7125 256.49 19.7342 256.509 19.6816Z" fill="#6A6A6A" fill-opacity="0.46"/>
<path d="M251.963 16.423C251.676 12.6712 250.351 7.00459 246.296 5.42177C246.028 5.31796 245.891 5.6858 246.047 5.85659C248.936 9.01786 250.988 12.1948 251.88 16.434C251.887 16.4829 251.967 16.4687 251.963 16.423Z" fill="#6A6A6A" fill-opacity="0.46"/>
<path d="M245.995 13.7716C245.742 10.6987 244.583 5.78404 241.136 4.63314C240.857 4.53928 240.736 4.89054 240.886 5.06797C241.852 6.2262 242.898 7.18075 243.669 8.50516C244.657 10.1954 245.445 11.8789 245.909 13.7827C245.92 13.8315 245.999 13.8172 245.995 13.7716Z" fill="#6A6A6A" fill-opacity="0.46"/>
<path d="M239.45 11.663C239.034 9.00075 237.654 4.71638 234.615 3.85664C234.407 3.79766 234.178 4.05581 234.324 4.23982C235.165 5.315 236.223 6.14202 237.002 7.2965C237.959 8.72271 238.804 10.0559 239.367 11.6871C239.385 11.7424 239.458 11.7184 239.45 11.663Z" fill="#6A6A6A" fill-opacity="0.46"/>
<path d="M234.321 9.24993C233.902 7.86468 233.277 6.51842 232.414 5.34225C231.766 4.46014 230.633 3.29451 229.508 3.06291C229.297 3.0203 229.078 3.24892 229.217 3.4461C229.87 4.37388 230.921 5.04751 231.669 5.92487C232.604 7.01831 233.541 8.01374 234.242 9.28376C234.266 9.32587 234.335 9.29545 234.321 9.24993Z" fill="#6A6A6A" fill-opacity="0.46"/>
<path d="M220.018 38.9792C219.587 42.0163 219.615 47.0682 222.712 48.9296C222.954 49.0762 223.176 48.7888 223.066 48.5716C222.336 47.1389 221.507 45.9363 221.035 44.3659C220.503 42.5775 220.132 40.8619 220.105 38.9877C220.104 38.942 220.024 38.9301 220.018 38.9792Z" fill="#6A6A6A" fill-opacity="0.46"/>
<path d="M225.28 43.892C225.093 46.5859 225.482 51.048 228.25 52.542C228.499 52.6755 228.708 52.4079 228.604 52.184C227.997 50.8965 227.142 49.815 226.604 48.4644C226.003 46.9546 225.543 45.5179 225.367 43.8908C225.359 43.8354 225.282 43.8365 225.28 43.892Z" fill="#6A6A6A" fill-opacity="0.46"/>
<path d="M230.486 47.9301C230.59 49.3819 230.893 50.8373 231.492 52.174C231.931 53.1539 232.763 54.5296 233.791 54.9912C233.979 55.0766 234.271 54.9253 234.173 54.6949C233.753 53.6658 232.892 52.7967 232.363 51.7986C231.678 50.5187 230.979 49.3239 230.573 47.919C230.559 47.8735 230.482 47.8811 230.486 47.9301Z" fill="#6A6A6A" fill-opacity="0.46"/>
<path d="M237.657 51.2907C237.682 53.0506 237.088 56.5408 239.367 57.3268C239.565 57.3957 239.735 57.1809 239.686 57.0053C239.438 56.1206 238.787 55.4444 238.582 54.4938C238.351 53.4228 238.043 52.3333 237.743 51.2763C237.729 51.2308 237.656 51.2417 237.657 51.2907Z" fill="#6A6A6A" fill-opacity="0.46"/>
<path d="M221.476 6.5157C231.578 4.91849 242.631 7.11753 252.271 10.0564C263.527 13.491 273.266 19.2322 279.357 29.2888C279.457 29.4573 279.742 29.3387 279.675 29.1534C276.065 19.0078 263.539 13.164 253.974 9.9103C243.898 6.47787 232.063 4.41132 221.452 6.43438C221.395 6.44502 221.42 6.52634 221.476 6.5157Z" fill="#6A6A6A" fill-opacity="0.46"/>
<path d="M251.823 12.7648C257.333 14.8982 262.693 17.5336 267.564 20.8492C272.472 24.1904 275.445 28.3607 278.675 33.1445C278.781 33.3031 279.053 33.1978 278.993 33.0059C277.469 28.0824 272.795 23.9276 268.773 20.9032C263.707 17.0972 257.875 14.6125 251.845 12.6828C251.788 12.6641 251.773 12.746 251.823 12.7648Z" fill="#6A6A6A" fill-opacity="0.46"/>
<path d="M239.216 53.6174C232.318 51.1748 225.775 47.2046 220.078 42.7188C215.057 38.7686 210.358 33.9088 210.012 27.3446C210.003 27.152 209.722 27.1137 209.668 27.304C208.126 32.8801 214.561 38.838 218.263 42.0728C224.255 47.3055 231.511 51.4023 239.194 53.6994C239.248 53.7182 239.27 53.6362 239.216 53.6174Z" fill="#6A6A6A" fill-opacity="0.46"/>
<path d="M268.1 60.8124C246.057 66.7205 219.782 58.7533 207.489 39.2001C207.386 39.0382 207.097 39.1503 207.17 39.3355C210.318 47.4784 220.075 53.7163 227.56 57.5009C240.209 63.892 254.567 64.9703 268.125 60.897C268.178 60.8799 268.154 60.7986 268.1 60.8124Z" fill="#6A6A6A" fill-opacity="0.46"/>
<path d="M222.515 26.7567C221.96 25.465 221.518 24.1161 220.65 23.0022C220.504 22.8182 220.182 22.9242 220.253 23.1747C220.638 24.5309 221.47 25.6813 222.197 26.8921C222.296 27.0572 222.594 26.9385 222.515 26.7567Z" fill="#6A6A6A" fill-opacity="0.46"/>
<path d="M224.135 29.0658C223.997 27.7387 223.734 25.8876 222.747 24.8898C222.592 24.7321 222.328 24.9026 222.384 25.1042C222.561 25.7417 222.97 26.3104 223.234 26.9172C223.535 27.6182 223.734 28.3566 223.876 29.1056C223.905 29.2456 224.147 29.2093 224.135 29.0658Z" fill="#6A6A6A" fill-opacity="0.46"/>
<path d="M225.522 30.4199C226.593 28.6111 226.656 26.3012 224.919 24.8638C224.686 24.6713 224.38 24.9208 224.511 25.1834C225.313 26.7815 225.886 28.5922 225.361 30.357C225.333 30.4521 225.473 30.5023 225.522 30.4199Z" fill="#6A6A6A" fill-opacity="0.46"/>
<path d="M228.706 31.4393C229.048 30.7288 229.379 29.9466 229.24 29.1551C229.067 28.1844 228.766 27.2777 228.088 26.5431C227.938 26.3788 227.665 26.5592 227.724 26.7576C228.182 28.2498 228.557 29.8249 228.542 31.396C228.54 31.481 228.668 31.5183 228.706 31.4393Z" fill="#6A6A6A" fill-opacity="0.46"/>
<path d="M231.532 32.0024C231.874 30.4363 231.622 28.892 230.378 27.8001C230.195 27.6395 229.905 27.8528 230.039 28.0664C230.775 29.254 231.389 30.5709 231.359 31.9822C231.357 32.0802 231.511 32.0975 231.532 32.0024Z" fill="#6A6A6A" fill-opacity="0.46"/>
<path d="M234.031 32.9752C234.481 32.1357 234.666 31.3753 234.418 30.4514C234.173 29.5471 233.707 28.7799 232.837 28.378C232.682 28.3051 232.441 28.4328 232.521 28.6244C233.104 30.0234 233.802 31.3848 233.867 32.9319C233.872 33.0168 233.989 33.051 234.031 32.9752Z" fill="#6A6A6A" fill-opacity="0.46"/>
<path d="M237.008 33.4573C237.244 32.7778 237.408 31.9621 237.153 31.2703C236.92 30.6369 236.506 29.7971 235.789 29.6183C235.639 29.5813 235.437 29.7019 235.46 29.8746C235.539 30.4124 235.909 30.8282 236.101 31.3348C236.355 32.0104 236.616 32.6957 236.661 33.4201C236.674 33.6158 236.945 33.6412 237.008 33.4573Z" fill="#6A6A6A" fill-opacity="0.46"/>
<path d="M239.56 33.7712C239.224 32.8029 238.992 31.66 238.454 30.7796C238.297 30.5239 237.906 30.7061 237.974 30.9859C238.217 31.9785 238.87 32.9551 239.321 33.876C239.387 34.0056 239.605 33.9077 239.56 33.7712Z" fill="#6A6A6A" fill-opacity="0.46"/>
<path d="M242.264 35.1542C242.142 34.6008 242.02 34.0474 241.901 33.4972C241.796 33.0219 241.758 32.5228 241.416 32.1915C241.301 32.0789 241.085 32.1115 241.055 32.3079C240.976 32.7826 241.161 33.126 241.331 33.5514C241.564 34.126 241.793 34.7007 242.026 35.2721C242.092 35.4344 242.3 35.3137 242.264 35.1542Z" fill="#6A6A6A" fill-opacity="0.46"/>
<path d="M244.101 35.8248C244.248 34.6436 243.964 33.3447 242.971 32.5854C242.792 32.4476 242.472 32.6385 242.632 32.8484C243.32 33.7527 243.888 34.6457 243.927 35.8046C243.932 35.8992 244.089 35.923 244.101 35.8248Z" fill="#6A6A6A" fill-opacity="0.46"/>
<path d="M245.915 36.6877C246.407 35.1618 246.023 33.6977 244.678 32.7672C244.459 32.617 244.267 32.9399 244.416 33.1108C245.249 34.0554 245.804 35.4058 245.657 36.6556C245.636 36.8062 245.873 36.819 245.915 36.6877Z" fill="#6A6A6A" fill-opacity="0.46"/>
<path d="M248.079 37.084C248.572 35.5614 248.188 34.0941 246.842 33.1669C246.623 33.0167 246.432 33.3363 246.581 33.5072C247.413 34.4551 247.969 35.8054 247.822 37.0552C247.804 37.2057 248.038 37.2153 248.079 37.084Z" fill="#6A6A6A" fill-opacity="0.46"/>
<path d="M249.892 37.1527C250.015 36.5238 250.045 35.8832 249.918 35.2515C249.752 34.4342 249.5 33.9285 248.854 33.3828C248.625 33.1903 248.312 33.4399 248.446 33.7024C249.004 34.7883 249.558 35.8676 249.548 37.1121C249.548 37.3048 249.855 37.3459 249.892 37.1527Z" fill="#6A6A6A" fill-opacity="0.46"/>
<path d="M252.538 37.7714C252.855 36.1076 252.565 34.0445 250.923 33.1021C250.707 32.978 250.371 33.1985 250.478 33.4484C251.075 34.8733 251.942 36.1407 252.107 37.719C252.131 37.9472 252.489 38.0236 252.538 37.7714Z" fill="#6A6A6A" fill-opacity="0.46"/>
<path d="M257.942 38.8786C258.354 37.7261 259.147 36.8324 259.922 35.8998C260.073 35.718 259.871 35.427 259.65 35.5674C258.498 36.2867 257.937 37.5232 257.688 38.8138C257.657 38.9808 257.888 39.0362 257.942 38.8786Z" fill="#6A6A6A" fill-opacity="0.46"/>
<path d="M256.38 38.0397C256.792 36.8871 257.581 35.9903 258.357 35.0577C258.507 34.8791 258.306 34.5881 258.085 34.7253C256.932 35.4479 256.375 36.6842 256.126 37.9748C256.092 38.1386 256.323 38.194 256.38 38.0397Z" fill="#6A6A6A" fill-opacity="0.46"/>
<path d="M258.949 40.3878C259.415 39.7374 260.023 39.3919 260.599 38.864C260.898 38.5885 261.211 38.3617 261.562 38.154C261.932 37.9395 262.109 37.7768 262.367 37.443C262.514 37.2481 262.486 36.9317 262.201 36.8706C261.763 36.7725 261.459 36.7574 261.052 36.9594C260.592 37.1851 260.183 37.5015 259.798 37.8338C259.134 38.4023 258.837 39.4748 258.707 40.2934C258.686 40.4407 258.864 40.5099 258.949 40.3878Z" fill="#6A6A6A" fill-opacity="0.46"/>
<path d="M261.781 41.2581C262.575 40.6354 263.427 40.3026 264.372 39.9651C265.225 39.6617 266.079 39.4694 266.822 38.9552C267.026 38.8117 267.058 38.4911 266.812 38.3607C264.689 37.2552 262.416 39.2785 261.362 40.9506C261.19 41.2211 261.563 41.4247 261.781 41.2581Z" fill="#6A6A6A" fill-opacity="0.46"/>
<path d="M265.208 41.9296C266.319 41.5176 267.487 41.2748 268.644 41.0125C269.708 40.7712 270.815 40.9346 271.812 40.4786C272.077 40.357 272.05 39.9292 271.801 39.8087C269.666 38.7813 266.706 40.4398 265.119 41.7871C265.053 41.8436 265.125 41.9602 265.208 41.9296Z" fill="#6A6A6A" fill-opacity="0.46"/>
<path d="M270.236 42.8498C270.955 42.3783 271.718 42.0631 272.562 41.8741C273.33 41.7025 274.09 41.8188 274.851 41.6179C275.053 41.5659 275.121 41.2348 274.903 41.1465C273.301 40.4904 271.263 41.6089 270.072 42.6496C269.96 42.746 270.11 42.9301 270.236 42.8498Z" fill="#6A6A6A" fill-opacity="0.46"/>
<path d="M272.75 44.2788C273.969 43.3296 275.485 43.1798 276.767 42.4061C276.992 42.2721 276.946 41.9199 276.685 41.8584C275.003 41.4422 273.451 42.8668 272.567 44.1051C272.492 44.2075 272.644 44.3588 272.75 44.2788Z" fill="#6A6A6A" fill-opacity="0.46"/>
<path d="M260.641 22.6031C260.623 24.1547 261.095 27.2146 263.029 27.5909C263.297 27.6425 263.52 27.4236 263.456 27.16C263.267 26.4051 262.533 25.7562 262.056 25.1525C261.454 24.3939 261.062 23.5016 260.814 22.5777C260.786 22.4801 260.643 22.5083 260.641 22.6031Z" fill="#6A6A6A" fill-opacity="0.46"/>
<path d="M256.335 22.0793C256.174 24.3257 257.381 26.7772 259.505 27.3435C260.285 27.5475 261.185 27.2566 260.421 26.8759C258.78 26.0575 257.003 24.0423 256.601 22.0361C256.568 21.8635 256.345 21.9256 256.335 22.0793Z" fill="#6A6A6A" fill-opacity="0.46"/>
<path d="M252.338 22.593C252.492 23.4563 252.831 24.2418 253.346 24.9528C253.78 25.5506 254.464 26.4094 255.304 26.1552C255.53 26.0898 255.676 25.8492 255.602 25.6217C255.388 24.9422 254.621 24.7706 254.088 24.3767C253.426 23.8835 252.928 23.2212 252.576 22.4915C252.507 22.3488 252.312 22.4628 252.338 22.593Z" fill="#6A6A6A" fill-opacity="0.46"/>
<path d="M250.723 21.9722C250.877 22.8322 251.217 23.6177 251.732 24.3287C252.165 24.9298 252.849 25.7853 253.689 25.5344C253.915 25.4657 254.061 25.2251 253.988 25.0008C253.773 24.3213 253.006 24.1497 252.473 23.7526C251.811 23.2594 251.314 22.6004 250.962 21.8674C250.892 21.7247 250.698 21.8386 250.723 21.9722Z" fill="#6A6A6A" fill-opacity="0.46"/>
<path d="M249.195 20.6492C248.975 21.8544 249.103 24.2661 250.653 24.6025C250.961 24.6698 251.19 24.4116 251.129 24.1218C251.017 23.5748 250.597 23.1858 250.276 22.7496C249.836 22.1454 249.611 21.4204 249.539 20.6898C249.523 20.5072 249.232 20.4462 249.195 20.6492Z" fill="#6A6A6A" fill-opacity="0.46"/>
<path d="M245.43 19.6709C245.416 20.4583 245.542 21.2141 245.804 21.9614C246 22.517 246.287 23.3586 246.968 23.44C247.145 23.4635 247.281 23.37 247.298 23.1869C247.342 22.5984 246.767 22.1464 246.476 21.6706C246.096 21.0459 245.888 20.3337 245.776 19.6201C245.746 19.4213 245.434 19.4847 245.43 19.6709Z" fill="#6A6A6A" fill-opacity="0.46"/>
<path d="M240.81 17.7403C240.527 18.6231 240.545 19.5046 240.796 20.3893C240.994 21.0722 241.724 22.1033 242.536 22.0194C242.733 21.9969 242.95 21.85 242.923 21.625C242.847 21.0023 242.307 20.6413 241.989 20.1234C241.513 19.3499 241.166 18.7181 241.157 17.7809C241.154 17.5817 240.87 17.5598 240.81 17.7403Z" fill="#6A6A6A" fill-opacity="0.46"/>
<path d="M236.705 17.4641C236.89 18.4053 236.921 19.6851 237.725 20.3558C237.881 20.4874 238.204 20.4598 238.237 20.2176C238.38 19.1475 237.554 18.1897 237.023 17.3288C236.914 17.1508 236.669 17.2818 236.705 17.4641Z" fill="#6A6A6A" fill-opacity="0.46"/>
<path d="M233.175 15.4437C232.878 16.4606 232.975 18.3862 234.248 18.6972C234.502 18.7588 234.752 18.5199 234.671 18.2663C234.517 17.7885 234.216 17.5806 233.926 17.1734C233.572 16.6757 233.432 16.0702 233.435 15.4725C233.433 15.3255 233.216 15.3059 233.175 15.4437Z" fill="#6A6A6A" fill-opacity="0.46"/>
<path d="M231.074 14.9916C230.681 15.8401 230.786 17.4291 231.97 17.6141C232.261 17.6588 232.527 17.3805 232.359 17.1021C232.153 16.772 231.849 16.5283 231.611 16.228C231.335 15.8859 231.225 15.4597 231.238 15.0316C231.24 14.9499 231.109 14.9127 231.074 14.9916Z" fill="#6A6A6A" fill-opacity="0.46"/>
<path d="M235.2 16.9292C235.004 17.7781 235.107 18.4167 235.467 19.2083C235.761 19.8605 236.316 20.8125 237.155 20.7054C237.332 20.6799 237.52 20.5562 237.5 20.354C237.429 19.6659 236.854 19.3903 236.455 18.8671C236.04 18.318 235.687 17.5654 235.453 16.9255C235.412 16.8118 235.228 16.7982 235.2 16.9292Z" fill="#6A6A6A" fill-opacity="0.46"/>
<path d="M238.598 17.9101C238.554 19.2988 238.982 20.3768 239.978 21.3648C240.107 21.4902 240.318 21.5459 240.494 21.4877C240.527 21.4774 240.56 21.4672 240.597 21.4568C240.706 21.4193 240.811 21.3295 240.836 21.2116C240.96 20.6121 240.304 20.2789 239.97 19.8462C239.483 19.2198 238.997 18.6326 238.682 17.8991C238.664 17.8536 238.598 17.8612 238.598 17.9101Z" fill="#6A6A6A" fill-opacity="0.46"/>
<path d="M242.829 18.5474C242.627 19.4617 242.672 20.4017 243.116 21.241C243.504 21.9701 244.442 23.2366 245.412 22.8205C245.628 22.7291 245.719 22.571 245.678 22.343C245.557 21.6393 244.782 21.3601 244.32 20.8737C243.72 20.2392 243.259 19.387 243.082 18.5437C243.057 18.4199 242.857 18.4294 242.829 18.5474Z" fill="#6A6A6A" fill-opacity="0.46"/>
<path d="M247.307 20.2065C247.139 21.6035 247.549 24.0665 249.194 24.5059C249.706 24.6421 250.044 24.0949 249.824 23.6736C249.535 23.1226 248.969 22.7914 248.545 22.3469C247.979 21.7511 247.649 20.9656 247.48 20.1811C247.458 20.0769 247.319 20.1181 247.307 20.2065Z" fill="#6A6A6A" fill-opacity="0.46"/>
<path d="M254.943 22.9063C255.025 23.676 255.196 24.3561 255.624 25.0161C256.027 25.6308 256.642 26.4905 257.414 26.6391C257.726 26.6966 257.948 26.3993 257.803 26.1271C257.48 25.5243 256.773 25.1298 256.337 24.5907C255.898 24.0452 255.452 23.4672 255.105 22.8582C255.064 22.787 254.931 22.8183 254.943 22.9063Z" fill="#6A6A6A" fill-opacity="0.46"/>
<path d="M263.68 24.3335C263.589 25.7556 263.841 29.1485 265.794 29.3254C265.968 29.3424 266.092 29.1707 266.096 29.0204C266.13 28.2393 265.436 27.6095 265.017 27.0017C264.453 26.1902 264.121 25.2545 263.939 24.297C263.91 24.1439 263.688 24.1995 263.68 24.3335Z" fill="#6A6A6A" fill-opacity="0.46"/>
<path d="M265.876 26.2765C265.726 27.3206 265.813 28.322 266.129 29.3265C266.389 30.1523 267.045 31.5502 268.114 31.4201C268.343 31.3938 268.484 31.2578 268.501 31.029C268.559 30.2802 267.782 29.6711 267.359 29.1123C266.743 28.3017 266.417 27.3234 266.307 26.3289C266.284 26.1039 265.912 26.0212 265.876 26.2765Z" fill="#6A6A6A" fill-opacity="0.46"/>
<path d="M268.076 27.8722C267.63 28.8129 267.677 29.8575 268.199 30.7675C268.563 31.3991 269.892 32.7316 270.873 32.1325C271.051 32.022 271.099 31.8972 271.07 31.7213C271.011 31.4184 270.823 31.3101 270.514 31.1644C270.073 30.9521 269.68 30.5888 269.312 30.3003C268.522 29.6849 268.183 28.7656 268.249 27.8892C268.255 27.801 268.108 27.8031 268.076 27.8722Z" fill="#6A6A6A" fill-opacity="0.46"/>
<path d="M87.7854 331.91C87.7854 331.91 87.4346 331.67 86.6959 331.377C85.9669 331.071 84.8633 330.699 83.442 330.289C80.6098 329.488 76.4526 328.66 71.428 328.46C68.9208 328.364 66.1995 328.443 63.3514 328.727C60.5002 329.021 57.5297 329.578 54.516 330.357C51.5025 331.14 48.4774 332.24 45.482 333.533C42.49 334.828 39.5522 336.378 36.7583 338.161C33.9438 339.911 31.2386 341.817 28.6927 343.88C26.1569 345.943 23.6983 348.038 21.4609 350.198C19.2202 352.358 17.1432 354.529 15.3131 356.699C13.5032 358.882 11.9131 361.039 10.6625 363.149C9.43208 365.268 8.50427 367.324 7.98777 369.229C7.48801 371.138 7.37582 372.875 7.54207 374.29C7.59773 374.639 7.61993 374.982 7.69831 375.291C7.77336 375.6 7.84482 375.893 7.90923 376.164C8.07457 376.694 8.25195 377.142 8.39127 377.506C8.74281 378.203 8.93231 378.576 8.93231 378.576C8.93231 378.576 8.69647 378.227 8.25884 377.57C7.89077 376.883 7.2936 375.849 6.99964 374.377C6.67264 372.924 6.58274 371.07 6.95327 369.01C7.32048 366.949 8.11185 364.709 9.26275 362.418C10.4103 360.127 11.914 357.782 13.6882 355.456C15.4658 353.129 17.4833 350.786 19.7323 348.521C21.978 346.254 24.3805 343.993 26.9888 341.867C29.5769 339.734 32.3736 337.713 35.2768 335.876C38.1969 334.056 41.2743 332.468 44.4092 331.141C47.5406 329.804 50.7608 328.799 53.9218 328.053C57.0826 327.301 60.2123 326.892 63.1824 326.723C66.1522 326.542 68.9699 326.648 71.5433 326.917C76.6999 327.445 80.8505 328.687 83.6207 329.783C85.0174 330.327 86.067 330.861 86.7638 331.246C87.4673 331.631 87.7854 331.91 87.7854 331.91Z" fill="#6A6A6A" fill-opacity="0.46"/>
<path d="M98.0273 342.231C98.0273 342.231 97.9372 342.027 97.7446 341.67C97.552 341.314 97.2369 340.808 96.7641 340.247C96.6417 340.108 96.5126 339.963 96.3669 339.825C96.2651 339.722 96.0586 339.535 95.9063 339.4C95.6124 339.172 95.215 338.946 94.779 338.809C93.9037 338.531 92.8063 338.557 91.6197 338.839C90.4364 339.125 89.1599 339.624 87.8417 340.235C86.5238 340.862 85.1646 341.611 83.7661 342.416C80.9694 344.036 78.0367 345.913 75.0771 347.78C72.1241 349.644 69.1343 351.498 66.2545 353.136C64.8196 353.961 63.3969 354.707 62.0401 355.404C60.6867 356.107 59.3718 356.711 58.1458 357.242C55.6973 358.318 53.5562 359 52.0408 359.378C51.2831 359.572 50.6775 359.676 50.265 359.751C49.8522 359.813 49.6326 359.849 49.6326 359.849C49.6326 359.849 49.8347 359.757 50.2157 359.592C50.5969 359.432 51.1431 359.166 51.8353 358.842C53.2158 358.168 55.1276 357.127 57.3582 355.78C58.4751 355.104 59.664 354.341 60.9291 353.544C62.1907 352.742 63.4978 351.856 64.8648 350.963C67.5953 349.165 70.5035 347.22 73.4729 345.34C76.4457 343.462 79.486 341.64 82.4882 340.138C83.9876 339.387 85.4885 338.728 86.9681 338.199C87.708 337.937 88.4383 337.704 89.1659 337.51C89.8971 337.329 90.6223 337.201 91.3352 337.128C92.0448 337.059 92.7453 337.045 93.4207 337.133C94.0927 337.218 94.7299 337.418 95.2751 337.704C95.8236 337.993 96.263 338.343 96.6267 338.759C96.7867 338.959 96.8923 339.091 97.0362 339.328C97.1527 339.516 97.2492 339.707 97.3421 339.882C97.6973 340.599 97.8505 341.198 97.9338 341.605C97.9805 341.81 97.9962 341.964 98.008 342.071C98.0197 342.176 98.0273 342.231 98.0273 342.231Z" fill="#6A6A6A" fill-opacity="0.46"/>
<path d="M67.0167 357.244L66.0068 357.102L65.0011 357.012L63.9963 356.978C63.6626 356.973 63.3293 356.995 62.9957 356.999C62.3325 357.042 61.6765 357.117 61.0274 357.212L60.0561 357.396L59.1025 357.635C58.4715 357.818 57.8508 358.02 57.2338 358.238C56.6202 358.466 56.017 358.713 55.4209 358.987C54.2286 359.534 53.0675 360.152 51.9203 360.803C50.7697 361.457 49.6434 362.16 48.5173 362.882L45.0954 365.03C42.7965 366.469 40.4102 367.873 37.7854 368.96L37.7257 368.984L37.6029 369.022C36.7993 369.259 35.8193 369.731 34.8999 370.232C33.9671 370.732 33.0348 371.269 32.1131 371.834C31.1948 372.403 30.2664 372.969 29.3551 373.564L26.6348 375.356C26.1594 375.67 25.8331 375.913 25.3885 376.276C25.0463 376.572 24.6813 376.904 24.3502 377.268C23.6845 377.99 23.1237 378.799 22.6704 379.658C22.2205 380.517 21.9085 381.447 21.7705 382.406C21.7015 382.884 21.6659 383.371 21.6837 383.854C21.6776 384.099 21.6982 384.341 21.7222 384.586L21.7425 384.814L21.7427 384.827C21.7535 384.876 21.7318 384.772 21.7354 384.788L21.7392 384.814L21.7608 384.912C21.7789 385.003 21.7816 384.964 21.7888 384.996C21.789 385.009 21.8166 385.061 21.8271 385.09C21.9686 385.389 22.2811 385.73 22.6529 386.029C23.0214 386.334 23.4562 386.605 23.904 386.86C24.8097 387.366 25.7973 387.782 26.8073 388.143C28.8342 388.871 30.9645 389.395 33.1189 389.752C35.2764 390.096 37.4683 390.302 39.6665 390.272C41.8578 390.23 44.0694 389.998 46.1769 389.307C44.1528 390.206 41.9248 390.657 39.6994 390.863C37.4673 391.066 35.2115 391.041 32.9759 390.816C30.7368 390.587 28.5086 390.202 26.3262 389.555C25.2366 389.225 24.1594 388.836 23.1068 388.319C22.5787 388.055 22.0603 387.766 21.5572 387.398C21.0608 387.026 20.5568 386.596 20.1757 385.928C20.1309 385.837 20.0864 385.77 20.0412 385.656C20.0029 385.558 19.9436 385.396 19.9362 385.354L19.908 385.256L19.8829 385.152L19.8721 385.096L19.8285 384.878C19.7637 384.585 19.7056 384.292 19.6774 383.992C19.5978 383.398 19.6047 382.791 19.6385 382.192C19.7158 380.989 20.0103 379.799 20.4828 378.687C20.9453 377.57 21.5993 376.538 22.3751 375.611C22.7613 375.148 23.1847 374.714 23.6581 374.276C24.0461 373.921 24.5829 373.485 25.0149 373.174C25.9116 372.504 26.8188 371.86 27.7428 371.233C28.6636 370.608 29.5944 369.987 30.5458 369.398C31.5004 368.802 32.4721 368.229 33.4809 367.681C34.5065 367.147 35.5124 366.626 36.8374 366.24L36.6582 366.302C37.2515 366.058 37.8446 365.8 38.4374 365.53C39.0269 365.257 39.6128 364.967 40.1985 364.668C41.3631 364.063 42.5374 363.434 43.7046 362.777L47.2324 360.787C48.4298 360.142 49.6473 359.507 50.8923 358.917C51.5181 358.62 52.1474 358.336 52.787 358.069C53.4334 357.807 54.0868 357.566 54.7472 357.344C55.4109 357.122 56.085 356.925 56.7628 356.752L57.79 356.521L58.8282 356.352L59.8773 356.235L60.9273 356.177C61.2777 356.179 61.6278 356.17 61.975 356.185C62.3258 356.212 62.673 356.227 63.0173 356.264C63.7125 356.345 64.395 356.459 65.0648 356.619L66.0569 356.902L67.0167 357.244Z" fill="#6A6A6A" fill-opacity="0.46"/>
<path d="M98.148 346.36C102.386 360.49 82.7698 366.422 74.101 372.8C68.4691 376.945 63.5917 381.532 56.761 383.744C51.0787 385.582 44.0996 385.212 38.4401 383.495C38.0847 383.386 37.7423 383.882 38.106 384.092C43.6702 387.345 49.3779 388.329 55.7617 387.369C64.0793 386.118 69.9838 380.461 76.273 375.496C82.5359 370.546 90.3531 367.643 95.4289 361.292C98.7813 357.1 100.427 351.361 98.2275 346.326C98.2066 346.274 98.1305 346.308 98.148 346.36Z" fill="#6A6A6A" fill-opacity="0.46"/>
<path d="M100.186 350.434C100.876 372.795 82.0775 388.02 64.329 398.64C64.1572 398.74 64.3284 399.019 64.5072 398.935C83.5048 389.857 103.026 373.308 100.272 350.419C100.268 350.364 100.185 350.378 100.186 350.434Z" fill="#6A6A6A" fill-opacity="0.46"/>
<path d="M8.52106 381.769C13.4197 394.847 27.4188 400.314 40.5712 401.888C54.1414 403.511 68.5997 399.776 78.403 390.22C78.5212 390.104 78.3746 389.91 78.2395 390.017C58.827 405.007 22.3122 403.76 8.67314 381.682C8.61834 381.594 8.48961 381.681 8.52106 381.769Z" fill="#6A6A6A" fill-opacity="0.46"/>
<path d="M79.8718 332.725C74.7727 338.057 68.9517 342.692 62.4843 346.342C59.4028 348.083 56.139 349.494 52.8123 350.723C52.2319 350.941 49.1099 352.447 48.6819 351.562C48.1954 350.566 47.5693 350.431 46.6105 350.145C46.2752 350.045 45.8546 350.444 46.1563 350.743C46.8807 351.389 47.4833 352.135 47.9641 352.984C48.1294 353.308 48.4516 353.421 48.7968 353.314C61.0042 349.53 71.9296 342.592 79.946 332.776C79.9854 332.733 79.9146 332.688 79.8718 332.725Z" fill="#6A6A6A" fill-opacity="0.46"/>
<path d="M46.965 353.434C46.4576 355.287 46.3031 356.672 44.0932 357.011C42.945 357.185 41.8525 357.512 40.7435 357.839C37.5556 358.774 34.5255 360.182 31.6387 361.786C26.6156 364.575 21.4262 368.634 18.4492 373.55C18.3094 373.78 18.602 374.129 18.8253 373.907C22.4827 370.223 25.8547 366.638 30.2593 363.77C35.1492 360.584 40.7178 358.731 46.3809 357.36C46.5338 357.325 46.6458 357.232 46.6699 357.071C46.8542 355.879 47.0352 354.688 47.2195 353.496C47.2406 353.355 47.0027 353.293 46.965 353.434Z" fill="#6A6A6A" fill-opacity="0.46"/>
<path d="M90.1717 368.127C91.863 371.744 90.7642 376.156 88.8912 379.475C88.7292 379.765 89.0834 380.031 89.316 379.782C92.4481 376.415 92.0898 371.962 90.2313 368.103C90.214 368.065 90.1544 368.088 90.1717 368.127Z" fill="#6A6A6A" fill-opacity="0.46"/>
<path d="M84.2977 372.047C85.3008 377.218 83.9261 382.095 82.1273 386.925C82.0027 387.257 82.4359 387.463 82.6585 387.211C86.4106 383.015 86.4972 377.004 84.6328 371.954C84.5632 371.772 84.2613 371.855 84.2977 372.047Z" fill="#6A6A6A" fill-opacity="0.46"/>
<path d="M77.9967 375.39C78.2031 381.997 75.7137 387.665 72.561 393.335C72.3795 393.661 72.8792 393.843 73.0957 393.621C77.8094 388.816 79.2866 381.785 78.346 375.343C78.3091 375.118 77.9932 375.172 77.9967 375.39Z" fill="#6A6A6A" fill-opacity="0.46"/>
<path d="M68.6533 380.682C68.8179 388.214 64.6658 394.648 58.9283 399.354C58.7078 399.534 58.9209 399.926 59.1956 399.794C66.4536 396.313 69.9501 388.315 68.9128 380.645C68.8901 380.476 68.6474 380.522 68.6533 380.682Z" fill="#6A6A6A" fill-opacity="0.46"/>
<path d="M59.5018 385.932C55.4517 392.15 49.6162 396.675 43.3749 400.649C43.0678 400.846 43.3781 401.266 43.6867 401.163C51.1269 398.708 56.5286 392.934 59.7306 386.056C59.7918 385.921 59.5832 385.807 59.5018 385.932Z" fill="#6A6A6A" fill-opacity="0.46"/>
<path d="M48.8822 388.036C44.2794 392.9 38.6722 396.09 32.3248 398.285C31.9931 398.401 32.1481 398.915 32.4876 398.861C39.3566 397.779 45.1907 393.753 49.0948 388.186C49.1927 388.048 48.9937 387.917 48.8822 388.036Z" fill="#6A6A6A" fill-opacity="0.46"/>
<path d="M36.9168 392.527C33.8432 394.565 30.3462 395.8 26.7988 396.804C26.4933 396.89 26.6602 397.312 26.9402 397.295C30.8872 397.073 34.168 395.26 37.0802 392.727C37.2052 392.617 37.0554 392.433 36.9168 392.527Z" fill="#6A6A6A" fill-opacity="0.46"/>
<path d="M97.9305 360.179C83.9181 377.034 65.3196 392.744 41.7497 391.46C41.5226 391.447 41.4843 391.764 41.7085 391.8C65.0033 395.686 85.6675 377.515 97.9845 360.218C98.0107 360.185 97.96 360.146 97.9305 360.179Z" fill="#6A6A6A" fill-opacity="0.46"/>
<path d="M97.0609 366.265C84.1928 381.439 68.6726 394.561 47.9122 396.577C47.6656 396.6 47.6652 396.989 47.9157 397.002C68.0362 397.929 86.5561 381.502 97.1318 366.316C97.1611 366.27 97.0969 366.222 97.0609 366.265Z" fill="#6A6A6A" fill-opacity="0.46"/>
<path d="M46.9137 357.049C43.8863 358.593 38.9736 362.17 39.7166 366.053C39.7639 366.297 40.0699 366.453 40.2805 366.273C41.6168 365.149 42.0571 363.493 42.9846 362.052C44.13 360.262 45.4012 358.62 47.0028 357.195C47.0718 357.131 47.0064 357.002 46.9137 357.049Z" fill="#6A6A6A" fill-opacity="0.46"/>
<path d="M42.1634 357.992C39.087 359.586 35.3834 363.041 36.2279 366.808C36.2888 367.071 36.6852 367.245 36.8608 366.962C37.7187 365.551 38.0503 363.981 38.8709 362.535C39.8278 360.852 40.7797 359.476 42.2971 358.213C42.4057 358.123 42.2991 357.922 42.1634 357.992Z" fill="#6A6A6A" fill-opacity="0.46"/>
<path d="M37.8841 359.375C35.0917 361.193 31.6197 364.935 32.5882 368.533C32.6804 368.872 33.0983 368.934 33.2632 368.612C33.9683 367.242 34.2698 365.667 34.8169 364.225C35.4922 362.451 36.6949 360.918 38.102 359.646C38.2663 359.493 38.0723 359.251 37.8841 359.375Z" fill="#6A6A6A" fill-opacity="0.46"/>
<path d="M33.1295 362.261C29.9716 364.578 26.0644 369.032 27.4687 373.189C27.5597 373.455 28.0009 373.514 28.1503 373.267C29.1284 371.662 29.3432 369.882 30.0558 368.15C30.8997 366.086 31.91 364.203 33.3801 362.496C33.511 362.344 33.2844 362.148 33.1295 362.261Z" fill="#6A6A6A" fill-opacity="0.46"/>
<path d="M27.4087 364.732C25.7224 366.667 24.282 368.759 23.1652 371.062C22.3648 372.713 21.2979 375.424 21.8805 377.231C21.9752 377.52 22.3989 377.527 22.5655 377.309C23.7445 375.763 23.7997 373.391 24.4773 371.565C25.3497 369.207 26.2246 367 27.5503 364.831C27.6089 364.739 27.484 364.646 27.4087 364.732Z" fill="#6A6A6A" fill-opacity="0.46"/>
<path d="M22.0125 369.996C20.2748 371.208 18.9724 372.942 18.5154 374.999C18.1019 376.864 18.1405 379.466 19.8003 380.673C20.05 380.852 20.4844 380.705 20.4957 380.375C20.5496 378.748 19.8693 377.295 19.9791 375.621C20.1131 373.591 20.7924 371.67 22.1378 370.115C22.2065 370.036 22.0917 369.943 22.0125 369.996Z" fill="#6A6A6A" fill-opacity="0.46"/>
<path d="M52.0393 352.438C51.0544 353.194 50.363 354.161 49.9246 355.307C49.5918 356.181 49.261 358.002 50.1912 358.608C50.3967 358.743 50.6154 358.654 50.7256 358.457C50.9297 358.085 50.8554 357.818 50.7987 357.404C50.727 356.886 50.7782 356.34 50.8132 355.82C50.894 354.623 51.4397 353.511 52.2289 352.615C52.3271 352.502 52.1546 352.348 52.0393 352.438Z" fill="#6A6A6A" fill-opacity="0.46"/>
<path d="M54.6559 351.112C53.7963 351.781 53.2235 352.658 52.9234 353.691C52.6958 354.469 52.4511 356.046 53.3093 356.537C53.4507 356.619 53.647 356.594 53.711 356.423C53.8004 356.18 53.8303 355.964 53.7528 355.707C53.5842 355.174 53.5389 354.646 53.5733 354.087C53.6435 353.063 54.1416 352.102 54.8736 351.383C55.0312 351.23 54.837 350.972 54.6559 351.112Z" fill="#6A6A6A" fill-opacity="0.46"/>
<path d="M56.5631 350.722C56.1667 351.364 55.9042 352.041 55.7427 352.775C55.6651 353.132 55.5821 353.574 55.6347 353.939C55.6871 354.298 55.9258 354.624 56.1272 354.921C56.3186 355.209 56.7994 355.045 56.8276 354.728C56.8533 354.46 56.9157 354.194 56.9247 353.923C56.9327 353.597 56.8206 353.259 56.7886 352.929C56.7214 352.271 56.8239 351.596 57.0205 350.97C57.1029 350.707 56.7289 350.458 56.5631 350.722Z" fill="#6A6A6A" fill-opacity="0.46"/>
<path d="M59.979 348.919C59.1407 349.856 58.7767 350.858 58.6499 352.091C58.5427 353.095 58.5036 354.601 59.4828 355.168C59.6881 355.286 60.0009 355.255 60.0868 354.999C60.3759 354.109 59.9087 353.251 59.8571 352.327C59.8006 351.3 60.1018 350.129 60.4364 349.167C60.5351 348.882 60.1755 348.701 59.979 348.919Z" fill="#6A6A6A" fill-opacity="0.46"/>
<path d="M63.5513 347.041C62.634 347.015 62.1691 348.583 61.99 349.265C61.7198 350.288 61.6823 351.69 62.6045 352.434C62.8173 352.604 63.1247 352.439 63.1608 352.197C63.2869 351.333 63.002 350.406 63.0645 349.527C63.0994 349.004 63.2548 348.505 63.4638 348.028C63.6085 347.696 63.7684 347.482 63.6559 347.121C63.6452 347.079 63.5947 347.043 63.5513 347.041Z" fill="#6A6A6A" fill-opacity="0.46"/>
<path d="M67.3699 343.982C66.6806 344.861 66.1724 345.812 65.8259 346.866C65.5207 347.785 65.2008 349.04 65.5492 349.973C65.6501 350.236 66.0053 350.136 66.0549 349.903C66.2379 349.054 66.0731 348.136 66.2158 347.265C66.4009 346.126 66.8837 345.051 67.5083 344.084C67.5702 343.992 67.4385 343.893 67.3699 343.982Z" fill="#6A6A6A" fill-opacity="0.46"/>
<path d="M69.548 342.416C68.7481 343.467 68.0995 344.603 67.6627 345.844C67.3345 346.786 67.0489 348.309 67.4874 349.243C67.5841 349.454 67.8808 349.446 67.9741 349.239C68.3923 348.293 68.2726 347.07 68.5096 346.05C68.7962 344.799 69.0641 343.629 69.6254 342.458C69.6447 342.412 69.5774 342.377 69.548 342.416Z" fill="#6A6A6A" fill-opacity="0.46"/>
<path d="M71.5699 340.67C70.1889 342.898 68.7023 346.02 69.4385 348.68C69.4953 348.895 69.8708 349.023 69.9429 348.738C70.2599 347.512 70.2764 346.258 70.4463 345.008C70.6459 343.532 71.113 342.107 71.7213 340.753C71.7632 340.664 71.6219 340.585 71.5699 340.67Z" fill="#6A6A6A" fill-opacity="0.46"/>
<path d="M73.9675 338.488C72.7072 340.547 71.4614 343.299 72.277 345.714C72.347 345.922 72.7004 345.923 72.7636 345.707C73.4395 343.378 73.3202 340.934 74.1963 338.612C74.2441 338.48 74.0455 338.359 73.9675 338.488Z" fill="#6A6A6A" fill-opacity="0.46"/>
<path d="M75.5206 336.924C74.6764 338.116 74.0174 339.429 73.6636 340.848C73.3225 342.231 72.9435 343.952 73.794 345.226C73.8795 345.355 74.1257 345.325 74.1665 345.171C74.5067 343.938 74.2114 342.574 74.3177 341.309C74.4467 339.795 74.9567 338.344 75.6753 337.007C75.7206 336.921 75.5793 336.845 75.5206 336.924Z" fill="#6A6A6A" fill-opacity="0.46"/>
<path d="M76.8381 334.836C75.9147 337.116 74.726 340.099 75.0894 342.585C75.1234 342.833 75.5111 342.899 75.5937 342.646C75.9363 341.56 75.9716 340.443 76.1502 339.32C76.3833 337.85 76.7701 336.408 77.2507 334.993C77.3332 334.734 76.9473 334.576 76.8381 334.836Z" fill="#6A6A6A" fill-opacity="0.46"/>
<path d="M79.1387 334.039C77.5727 336.374 75.7064 339.945 76.6561 342.812C76.7262 343.026 77.0761 343.015 77.1394 342.805C77.5589 341.528 77.5619 340.055 77.7539 338.726C77.9812 337.109 78.5163 335.553 79.2127 334.08C79.2387 334.037 79.1681 333.999 79.1387 334.039Z" fill="#6A6A6A" fill-opacity="0.46"/>
<path d="M80.3138 333.384C79.4696 334.563 78.9741 335.873 78.7904 337.303C78.6424 338.458 78.719 340.116 79.6787 340.934C79.8037 341.037 80.0154 340.939 80.0229 340.786C80.1064 339.759 79.6419 338.646 79.5453 337.612C79.4155 336.177 79.7955 334.731 80.4718 333.467C80.5137 333.381 80.3759 333.308 80.3138 333.384Z" fill="#6A6A6A" fill-opacity="0.46"/>
<path d="M79.1927 333.475C78.5133 336.023 79.3009 339.375 81.9536 340.502C82.2255 340.615 82.5199 340.255 82.3096 340.036C80.502 338.165 79.1077 336.278 79.5308 333.558C79.5611 333.368 79.243 333.285 79.1927 333.475Z" fill="#6A6A6A" fill-opacity="0.46"/>
<path d="M75.0011 341.469C67.9482 347.102 60.078 350.874 51.7795 354.369C51.647 354.423 51.7007 354.651 51.8502 354.616C60.6343 352.48 68.4818 347.502 75.11 341.604C75.1923 341.531 75.0901 341.399 75.0011 341.469Z" fill="#6A6A6A" fill-opacity="0.46"/>
<path d="M78.3216 336.868C75.3993 339.375 72.2771 341.685 69.072 343.83C68.8278 343.997 69.0712 344.402 69.3393 344.27C72.9974 342.498 75.9283 340.112 78.4503 336.987C78.5091 336.911 78.4007 336.805 78.3216 336.868Z" fill="#6A6A6A" fill-opacity="0.46"/>
<path d="M80.2775 330.939C79.6553 332.904 79.9989 334.565 81.1966 336.233C82.1419 337.555 84.294 339.241 85.9084 337.992C86.1127 337.836 86.2144 337.524 86.0938 337.287C85.5464 336.227 84.3799 335.872 83.442 335.22C82.1399 334.318 81.14 332.507 80.869 331.005C80.8178 330.728 80.3726 330.634 80.2775 330.939Z" fill="#6A6A6A" fill-opacity="0.46"/>
<path d="M37.7772 340.51C29.1073 345.224 22.2708 351.94 16.689 359.933C12.5352 365.877 6.84895 375.871 12.1124 382.708C12.2896 382.937 12.7306 382.777 12.6591 382.481C11.6764 378.416 11.3279 374.796 12.5633 370.724C13.868 366.409 16.6065 362.469 19.2329 358.827C24.2772 351.838 30.9726 345.889 37.9108 340.73C38.0262 340.644 37.9095 340.44 37.7772 340.51Z" fill="#6A6A6A" fill-opacity="0.46"/>
<path d="M7.92525 370.826C11.592 366.459 16.2368 365.227 21.793 365.478C22.1837 365.495 22.3486 364.963 21.9625 364.815C16.6343 362.77 10.2227 365.963 7.69636 370.702C7.62179 370.837 7.83353 370.932 7.92525 370.826Z" fill="#6A6A6A" fill-opacity="0.46"/>
<path d="M8.15229 365.814C11.2027 361.93 15.4034 359.662 20.1709 358.396C20.4333 358.327 20.493 357.888 20.166 357.883C14.78 357.822 10.2746 361.068 7.99752 365.734C7.95558 365.823 8.09013 365.89 8.15229 365.814Z" fill="#6A6A6A" fill-opacity="0.46"/>
<path d="M13.4408 357.308C18.0174 354.106 23.2053 352.614 28.7717 352.244C29.0851 352.223 29.0479 351.779 28.7668 351.731C22.9189 350.778 17.3042 352.92 13.2229 357.04C13.0719 357.193 13.2528 357.442 13.4408 357.308Z" fill="#6A6A6A" fill-opacity="0.46"/>
<path d="M20.0911 349.385C24.1704 347.411 28.5574 346.732 33.0738 347.038C33.311 347.054 33.4287 346.696 33.1773 346.624C28.5411 345.3 23.7621 346.303 19.9128 349.09C19.7546 349.207 19.9123 349.469 20.0911 349.385Z" fill="#6A6A6A" fill-opacity="0.46"/>
<path d="M28.1792 341.407C31.7436 340.811 35.3681 340.845 38.9698 340.91C39.2535 340.915 39.2975 340.538 39.0196 340.48C35.3233 339.716 31.7102 340.186 28.1332 341.244C28.0369 341.272 28.0827 341.425 28.1792 341.407Z" fill="#6A6A6A" fill-opacity="0.46"/>
<path d="M88.4662 332.784C92.2763 337.807 97.5691 341.07 98.9221 347.621C98.9801 347.908 99.3937 347.908 99.4423 347.614C100.016 344.297 99.4918 341.776 97.6451 338.952C95.6239 335.86 91.5966 334.541 88.6467 332.602C88.5253 332.519 88.3776 332.665 88.4662 332.784Z" fill="#6A6A6A" fill-opacity="0.46"/>
</svg>
